<svg width="81" height="78" viewBox="0 0 81 78" fill="none" xmlns="http://www.w3.org/2000/svg">
<path d="M66.9753 77.7133H13.0664C13.0664 77.7133 18.7863 67.845 27.4103 69.0806C36.0342 70.3163 35.1721 74.0449 41.9305 72.8281C46.7569 71.9592 45.6017 70.3944 51.2746 68.3727C59.2492 65.5306 66.9753 77.7133 66.9753 77.7133Z" fill="#F4F1E3"/>
<path d="M73.453 17.9511C73.4024 17.9511 73.3526 17.9277 73.3202 17.8838C73.2668 17.8106 73.2827 17.7077 73.356 17.6544C73.4637 17.5672 74.1541 16.8519 74.4772 16.4722C74.0969 16.5249 73.3937 16.6585 72.7538 16.7952C72.6644 16.8116 72.5777 16.7574 72.559 16.6688C72.5399 16.5799 72.5965 16.4927 72.6852 16.4738C74.8749 16.0061 74.9021 16.0938 74.951 16.2525C75.0349 16.5225 73.5655 17.9081 73.5497 17.9194C73.5205 17.941 73.4865 17.9511 73.453 17.9511Z" fill="#241726"/>
<path d="M70.9202 17.9931C70.9202 17.9931 71.0793 15.4337 72.4146 15.899C74.2643 16.5436 75.1149 21.312 71.6229 22.347C68.131 23.382 66.8724 20.51 66.8724 20.51L68.7482 20.0797C68.7482 20.0797 67.4055 18.8661 67.5326 17.8723C67.6596 16.8786 68.7087 17.7544 68.7087 17.7544C68.7087 17.7544 67.4833 15.4626 68.5019 15.3953C69.5204 15.3281 70.9202 17.9931 70.9202 17.9931Z" fill="#B1739A"/>
<path d="M72.4957 17.6936C72.1386 17.6936 71.7918 17.1708 71.6921 17.0076C71.6447 16.9299 71.6693 16.829 71.7468 16.7818C71.8238 16.7343 71.9251 16.7586 71.9724 16.8363C72.1097 17.0608 72.3251 17.3046 72.4507 17.3555C72.4522 17.219 72.3588 16.8821 72.2316 16.5822C72.1963 16.4988 72.2354 16.4024 72.3186 16.3671C72.4022 16.3318 72.4985 16.3704 72.534 16.454C72.6677 16.7693 72.8705 17.3333 72.726 17.5688C72.6807 17.6429 72.6076 17.6868 72.5201 17.6929C72.5119 17.6936 72.5038 17.6936 72.4957 17.6936Z" fill="#241726"/>
<path d="M69.3413 20.0711C69.3044 20.0711 69.2672 20.0586 69.2366 20.0333C69.1363 19.9498 68.2601 19.2026 68.3233 18.5887C68.3444 18.3858 68.4619 18.3103 68.5301 18.2834C68.731 18.2042 69.0208 18.3434 69.2649 18.5067C69.1529 17.8778 69.2111 17.5223 69.4399 17.4483C69.5372 17.4162 69.8335 17.3212 70.9201 19.0134C70.969 19.0898 70.9468 19.1914 70.8705 19.2404C70.794 19.2895 70.6926 19.267 70.6436 19.1911C70.2496 18.5772 69.7315 17.895 69.5352 17.7789C69.5086 17.9004 69.5616 18.3953 69.6797 18.8703C69.6969 18.9395 69.6672 19.0123 69.6061 19.0497C69.5451 19.0872 69.4671 19.0811 69.4127 19.0339C69.1191 18.7789 68.756 18.5618 68.6554 18.5878C68.656 18.5908 68.6526 18.6022 68.6504 18.6228C68.6158 18.9547 69.1205 19.5092 69.4468 19.7806C69.5163 19.8386 69.526 19.9423 69.4679 20.0118C69.4352 20.0509 69.3885 20.0711 69.3413 20.0711Z" fill="#241726"/>
<path d="M70.8772 21.7548C70.376 21.7548 70.0068 21.6566 69.9772 21.6487C69.8899 21.6246 69.8385 21.5345 69.8624 21.447C69.8863 21.3598 69.9765 21.309 70.064 21.3318C70.0768 21.3357 71.353 21.6718 72.3322 21.0348C72.9216 20.6512 73.2919 19.9896 73.433 19.0684C73.4465 18.9785 73.5283 18.9166 73.6202 18.9307C73.7099 18.9445 73.7715 19.0282 73.7577 19.1177C73.6018 20.137 73.1818 20.8749 72.5091 21.3115C71.9669 21.6634 71.3607 21.7548 70.8772 21.7548Z" fill="#241726"/>
<path d="M2.16621 39.4582C2.13339 39.4582 2.10011 39.4482 2.07136 39.4271C2.05558 39.4156 0.586674 38.0288 0.670111 37.7596C0.721361 37.5967 0.746674 37.5146 2.93605 37.9812C3.0248 38.0001 3.08121 38.0873 3.0623 38.1762C3.04339 38.2648 2.95605 38.3199 2.86746 38.3026C2.22761 38.166 1.52464 38.0323 1.14402 37.9796C1.4673 38.3593 2.15808 39.0753 2.26777 39.1637C2.33699 39.2198 2.35089 39.3224 2.29652 39.3934C2.26402 39.4357 2.21542 39.4582 2.16621 39.4582Z" fill="#241726"/>
<path d="M4.7009 39.5009C4.7009 39.5009 4.54184 36.9415 3.20653 37.4069C1.35684 38.0514 0.506215 42.8198 3.99825 43.8548C7.49012 44.8898 8.74872 42.0178 8.74872 42.0178L6.87309 41.5875C6.87309 41.5875 8.21575 40.3739 8.08872 39.3801C7.96168 38.3865 6.91262 39.2622 6.91262 39.2622C6.91262 39.2622 8.13793 36.9704 7.11934 36.9031C6.10075 36.8359 4.7009 39.5009 4.7009 39.5009Z" fill="#B1739A"/>
<path d="M3.12544 39.2018C3.11747 39.2018 3.10919 39.2018 3.10122 39.2011C3.01372 39.1951 2.94059 39.1511 2.89512 39.0771C2.75059 38.8416 2.95356 38.2775 3.08715 37.9619C3.12278 37.8782 3.21919 37.8394 3.30247 37.875C3.3859 37.9104 3.42481 38.0066 3.3895 38.0902C3.26231 38.3904 3.16887 38.7272 3.17044 38.8638C3.29637 38.8129 3.51169 38.5691 3.64872 38.3443C3.69622 38.2666 3.79747 38.2426 3.87434 38.2897C3.95184 38.3369 3.97637 38.4379 3.92903 38.5155C3.82965 38.6786 3.48231 39.2018 3.12544 39.2018Z" fill="#241726"/>
<path d="M6.27995 41.5789C6.23277 41.5789 6.18605 41.5588 6.15355 41.5195C6.09558 41.45 6.10511 41.3463 6.1748 41.2883C6.50105 41.0169 7.00542 40.4625 6.97105 40.1305C6.96792 40.1 6.96136 40.0897 6.96136 40.0897C6.87589 40.065 6.50667 40.2831 6.20855 40.5416C6.15417 40.5885 6.07574 40.5949 6.01511 40.5574C5.95402 40.5202 5.92433 40.4474 5.94152 40.3777C6.05324 39.928 6.10683 39.4608 6.07027 39.2969C5.86339 39.4377 5.36167 40.101 4.97761 40.6991C4.92839 40.775 4.82683 40.7975 4.75074 40.7485C4.67449 40.6994 4.6523 40.5977 4.7012 40.5214C5.78824 38.828 6.08355 38.9239 6.18136 38.9563C6.41011 39.0303 6.46855 39.3856 6.35636 40.0144C6.60074 39.8514 6.89105 39.7116 7.09136 39.7911C7.15933 39.818 7.27667 39.8935 7.29792 40.0964C7.3612 40.7103 6.48511 41.4575 6.3848 41.541C6.35417 41.5664 6.31683 41.5789 6.27995 41.5789Z" fill="#241726"/>
<path d="M4.74371 43.2626C4.26043 43.2626 3.65418 43.1712 3.11215 42.8193C2.43949 42.3827 2.01934 41.6448 1.8634 40.6256C1.84965 40.536 1.91121 40.4524 2.0009 40.4385C2.09137 40.4245 2.17434 40.4863 2.18809 40.5762C2.32918 41.4976 2.69949 42.1593 3.28903 42.5426C4.26793 43.1795 5.54465 42.843 5.55731 42.8396C5.64496 42.8165 5.73512 42.8676 5.75887 42.9548C5.78278 43.0423 5.73153 43.1324 5.64403 43.1565C5.61449 43.1645 5.24512 43.2626 4.74371 43.2626Z" fill="#241726"/>
<path d="M10.175 16.7531C10.175 16.7531 11.1852 13.7565 11.6185 14.066C12.0519 14.3754 11.943 14.8957 11.943 14.8957C11.943 14.8957 13.2032 13.2676 13.8863 13.6657C14.5693 14.0639 13.9021 14.872 13.9021 14.872C13.9021 14.872 16.0169 13.3715 16.3505 14.1576C16.6841 14.9437 14.7772 16.5496 14.7772 16.5496C14.7772 16.5496 15.8777 15.8685 16.1061 16.7912C16.3346 17.7139 14.4871 17.9365 14.3722 17.9359C14.2574 17.9354 14.9758 17.9034 14.7603 18.5145C14.5449 19.1254 8.7316 19.4403 10.175 16.7531Z" fill="#51AEA5"/>
<path d="M7.50706 20.0492C7.50706 20.0492 4.67597 21.4579 4.58753 20.9327C4.4991 20.4076 4.94347 20.116 4.94347 20.116C4.94347 20.116 2.90144 20.3792 2.69878 19.6149C2.49613 18.8507 3.53925 18.7496 3.53925 18.7496C3.53925 18.7496 0.982222 18.319 1.30097 17.5267C1.61972 16.7345 4.1041 16.9437 4.1041 16.9437C4.1041 16.9437 2.84394 16.649 3.33363 15.8343C3.82332 15.0196 5.28878 16.1665 5.36972 16.2479C5.45066 16.3293 4.91925 15.8446 5.50331 15.5642C6.08753 15.2837 10.4264 19.1656 7.50706 20.0492Z" fill="#51AEA5"/>
<path d="M10.8944 19.5759C10.8944 19.5759 13.5311 21.3214 13.1208 21.6609C12.7105 22.0003 12.2356 21.7616 12.2356 21.7616C12.2356 21.7616 13.4856 23.3975 12.9256 23.9555C12.3655 24.5134 11.7558 23.6611 11.7558 23.6611C11.7558 23.6611 12.663 26.0902 11.8177 26.2109C10.9724 26.3316 9.90971 24.0763 9.90971 24.0763C9.90971 24.0763 10.2855 25.3147 9.33502 25.2986C8.38456 25.2825 8.64377 23.4398 8.67377 23.3289C8.70377 23.2181 8.55018 23.9206 8.01487 23.5555C7.47956 23.1903 8.66784 17.4911 10.8944 19.5759Z" fill="#51AEA5"/>
<path d="M11.6078 17.7081C11.3011 17.6439 10.9966 17.6592 10.7141 17.7378C10.8386 16.7669 10.1986 15.848 9.22409 15.6441C8.19987 15.4297 7.19565 16.0864 6.98143 17.1106C6.85268 17.7263 7.04003 18.3335 7.43128 18.7674C6.74878 18.938 6.18784 19.4814 6.03409 20.2163C5.81972 21.2405 6.47643 22.2447 7.50065 22.4589C8.52503 22.6733 9.52909 22.0166 9.74331 20.9924C9.75784 20.9231 9.76753 20.8541 9.77425 20.7853C10.0375 21.097 10.4014 21.3274 10.8316 21.4175C11.856 21.6319 12.86 20.9752 13.0742 19.951C13.2888 18.9266 12.6322 17.9225 11.6078 17.7081ZM9.3419 19.3236C9.3394 19.343 9.33612 19.3624 9.3344 19.3817C9.32112 19.3661 9.30737 19.3508 9.29378 19.3356C9.30972 19.3316 9.32597 19.3281 9.3419 19.3236Z" fill="#D45A41"/>
<path d="M6.90878 18.8187C6.87691 18.8187 6.84456 18.8095 6.81628 18.7901C5.67831 18.0128 3.5444 18.1086 3.52284 18.1082C3.42956 18.1182 3.35503 18.0428 3.35081 17.9525C3.34644 17.862 3.41628 17.785 3.50691 17.7806C3.59862 17.7757 5.7719 17.6792 7.00175 18.5189C7.07659 18.5701 7.09581 18.6722 7.04472 18.7473C7.01269 18.7937 6.96112 18.8187 6.90878 18.8187Z" fill="#241726"/>
<path d="M11.6077 17.8721C11.5307 17.8721 11.4619 17.8175 11.4468 17.7392C11.4294 17.65 11.4875 17.5638 11.5764 17.5464C12.2753 17.4105 13.4855 15.8803 13.893 15.3021C13.9452 15.2283 14.0472 15.21 14.1219 15.2622C14.196 15.3144 14.2138 15.4171 14.1616 15.4911C14.0039 15.715 12.5939 17.683 11.6394 17.8689C11.6286 17.8711 11.6182 17.8721 11.6077 17.8721Z" fill="#241726"/>
<path d="M10.6697 24.2853C10.5802 24.2853 10.5069 24.2134 10.5055 24.1236C10.496 23.5517 10.358 22.0008 9.84003 21.6947C9.7619 21.6484 9.73612 21.5478 9.78206 21.4698C9.82831 21.3915 9.92878 21.3662 10.0071 21.4117C10.7752 21.8656 10.8302 23.889 10.8339 24.1183C10.8353 24.2087 10.763 24.2834 10.6724 24.285C10.6714 24.2853 10.6705 24.2853 10.6697 24.2853Z" fill="#241726"/>
<path d="M10.7477 17.7329C10.6627 17.7015 10.5685 17.7448 10.5366 17.8301C10.5328 17.8401 10.1474 18.8551 9.33378 19.0135C9.3055 19.0191 9.28207 19.0332 9.2616 19.0505C9.2205 19.022 9.18035 18.9927 9.13441 18.9668C8.49347 18.6043 7.9505 18.4838 7.52035 18.6109C7.14785 18.7205 7.00566 18.9743 6.9905 19.0027C6.94878 19.0823 6.97925 19.1794 7.05816 19.2221C7.13675 19.2654 7.23613 19.2355 7.28035 19.1573C7.28425 19.1505 7.37597 18.9918 7.62394 18.9224C7.85832 18.8582 8.28207 18.8615 8.97269 19.2527C9.84613 19.7466 9.59457 20.9066 9.58347 20.9557C9.56347 21.0438 9.61863 21.1321 9.70691 21.1523C9.71925 21.1548 9.7316 21.1565 9.74363 21.1565C9.81847 21.1565 9.88597 21.1052 9.90347 21.0291C9.91488 20.9795 10.1322 19.9785 9.53988 19.2985C10.4341 19.0285 10.8278 17.9898 10.8449 17.9434C10.8761 17.8585 10.8327 17.7643 10.7477 17.7329Z" fill="#241726"/>
<path d="M10.0721 17.256C10.003 17.256 9.93863 17.2121 9.91597 17.1427C9.69769 16.4769 8.93035 16.533 8.92316 16.5327C8.83113 16.5413 8.75347 16.473 8.74597 16.3825C8.73863 16.2921 8.80581 16.2128 8.89628 16.2055C9.25269 16.1728 9.98957 16.313 10.2282 17.0407C10.2564 17.1266 10.2094 17.2192 10.1233 17.2478C10.1063 17.2533 10.0889 17.256 10.0721 17.256Z" fill="#FBFCFF"/>
<path d="M12.5519 19.6822C12.48 19.6822 12.4139 19.6344 12.3938 19.5619C12.2574 19.0693 11.54 18.7679 11.5328 18.7646C11.4491 18.7302 11.4092 18.6341 11.4436 18.5504C11.4782 18.4666 11.5739 18.4269 11.6577 18.4608C11.6932 18.4755 12.5307 18.8258 12.7103 19.474C12.7346 19.5615 12.6833 19.6519 12.5958 19.676C12.5813 19.6802 12.5664 19.6822 12.5519 19.6822Z" fill="#FBFCFF"/>
<path d="M9.09222 20.644C9.00238 20.644 8.92909 20.5718 8.928 20.4816C8.92675 20.3726 8.88753 20.2832 8.80863 20.2083C8.55722 19.9704 7.9755 19.938 7.77144 19.9488C7.68441 19.9521 7.60441 19.8824 7.60034 19.7916C7.59644 19.7012 7.66675 19.6246 7.75722 19.6204C7.79316 19.6204 8.62941 19.5868 9.03409 19.9693C9.17925 20.1066 9.25394 20.2776 9.25659 20.4776C9.25769 20.568 9.18503 20.6424 9.09441 20.6437C9.09363 20.644 9.09284 20.644 9.09222 20.644Z" fill="#FBFCFF"/>
<path d="M71.0682 55.2255C71.0682 55.2255 68.3132 53.6733 68.6981 53.3053C69.0829 52.9374 69.5737 53.1416 69.5737 53.1416C69.5737 53.1416 68.2096 51.5994 68.7284 51.0027C69.247 50.4061 69.9164 51.2125 69.9164 51.2125C69.9164 51.2125 68.8374 48.8547 69.672 48.6738C70.5065 48.4928 71.7279 50.6663 71.7279 50.6663C71.7279 50.6663 71.2645 49.458 72.2135 49.406C73.1626 49.3539 73.0362 51.2105 73.0142 51.3232C72.9921 51.4358 73.0951 50.7241 73.6551 51.0499C74.2153 51.3758 73.4384 57.1455 71.0682 55.2255Z" fill="#51AEA5"/>
<path d="M73.8076 58.4625C73.8076 58.4625 74.6626 61.5069 74.1303 61.4956C73.5979 61.4844 73.3945 60.9933 73.3945 60.9933C73.3945 60.9933 73.2715 63.0484 72.4829 63.1049C71.6943 63.1611 71.7898 62.1175 71.7898 62.1175C71.7898 62.1175 70.889 64.5491 70.1703 64.0878C69.4515 63.6267 70.1212 61.2252 70.1212 61.2252C70.1212 61.2252 69.5964 62.4081 68.8875 61.7749C68.1786 61.1416 69.579 59.9161 69.6742 59.8519C69.7693 59.7875 69.1939 60.2191 69.0275 59.5928C68.8609 58.9666 73.485 55.4292 73.8076 58.4625Z" fill="#51AEA5"/>
<path d="M73.9759 55.0462C73.9759 55.0462 76.1832 52.7819 76.4401 53.2484C76.697 53.7148 76.3735 54.1368 76.3735 54.1368C76.3735 54.1368 78.2143 53.2144 78.6578 53.8688C79.1012 54.5234 78.1499 54.9632 78.1499 54.9632C78.1499 54.9632 80.7057 54.5257 80.6663 55.3788C80.627 56.2319 78.2128 56.8543 78.2128 56.8543C78.2128 56.8543 79.4995 56.7165 79.3062 57.6471C79.1128 58.5777 77.351 57.979 77.2478 57.9288C77.1445 57.8787 77.806 58.1609 77.3473 58.6184C76.8887 59.076 71.5117 56.844 73.9759 55.0462Z" fill="#51AEA5"/>
<path d="M75.1522 56.4414C75.0868 56.4142 75.0209 56.3917 74.9545 56.3724C75.3098 56.1721 75.6042 55.8575 75.7731 55.4516C76.175 54.4853 75.7175 53.3763 74.7514 52.9744C73.7851 52.5725 72.6761 53.03 72.2742 53.9961C72.1539 54.2855 72.112 54.5875 72.1364 54.8797C71.2057 54.576 70.1834 55.033 69.8011 55.9524C69.3992 56.9186 69.8567 58.0277 70.8228 58.4296C71.4036 58.6711 72.035 58.6003 72.5343 58.2971C72.5745 58.9994 73.0036 59.6521 73.6967 59.9403C74.6629 60.3422 75.772 59.8847 76.1739 58.9185C76.5759 57.9524 76.1184 56.8433 75.1522 56.4414ZM73.4378 56.5242C73.4564 56.5303 73.4748 56.5371 73.4934 56.5425C73.4756 56.5525 73.4579 56.5631 73.4404 56.5739C73.4397 56.5574 73.4392 56.5407 73.4378 56.5242Z" fill="#D45A41"/>
<path d="M70.8307 62.0995C70.8232 62.0995 70.8154 62.0989 70.8078 62.098C70.7179 62.0855 70.6554 62.0023 70.6679 61.9127C70.6806 61.8216 70.9912 59.6686 72.0463 58.6172C72.1107 58.5533 72.2146 58.5533 72.2785 58.6178C72.3428 58.6819 72.3424 58.7859 72.2782 58.85C71.3017 59.8228 70.9962 61.937 70.9931 61.9581C70.9817 62.0402 70.9113 62.0995 70.8307 62.0995Z" fill="#241726"/>
<path d="M72.274 54.1604C72.1836 54.1604 72.1101 54.0873 72.1098 53.9968C72.1067 53.2845 70.8296 51.8098 70.3376 51.3018C70.2746 51.2366 70.2762 51.1327 70.3415 51.0696C70.407 51.0068 70.5109 51.008 70.5737 51.0735C70.764 51.2701 72.434 53.0229 72.4382 53.9957C72.4386 54.0865 72.3654 54.1602 72.2746 54.1605L72.274 54.1604Z" fill="#241726"/>
<path d="M75.7367 56.5335C75.6981 56.5335 75.6593 56.52 75.6282 56.4924C75.5601 56.4327 75.5535 56.3288 75.6134 56.2608C76.2029 55.5911 78.2013 55.9153 78.427 55.9546C78.5163 55.9699 78.576 56.0549 78.5607 56.1441C78.5453 56.2336 78.4609 56.2961 78.3709 56.2778C77.8076 56.1806 76.2573 56.0261 75.8601 56.4777C75.8274 56.5146 75.7823 56.5335 75.7367 56.5335Z" fill="#241726"/>
<path d="M75.2182 56.2913C75.1715 56.2707 74.2285 55.87 73.4501 56.3252C73.3523 55.3964 72.4051 54.8157 72.3628 54.79C72.2848 54.7438 72.1843 54.7678 72.1376 54.8461C72.0909 54.9238 72.1159 55.0247 72.1935 55.0716C72.2029 55.0771 73.1281 55.6453 73.1317 56.4741C73.1318 56.503 73.1414 56.5286 73.1545 56.5522C73.1187 56.5874 73.0824 56.6213 73.0482 56.6617C72.572 57.2239 72.3529 57.7349 72.3968 58.1807C72.435 58.5671 72.6578 58.7541 72.6829 58.7742C72.7129 58.798 72.7485 58.8096 72.7839 58.8096C72.8315 58.8096 72.8787 58.7886 72.9112 58.7489C72.9681 58.6794 72.9578 58.5764 72.889 58.5186C72.8831 58.5135 72.7442 58.3936 72.7228 58.1369C72.7025 57.895 72.7859 57.4794 73.2987 56.8739C73.9473 56.1077 75.0403 56.5717 75.0862 56.5921C75.1703 56.6286 75.2664 56.5902 75.3023 56.5074C75.3389 56.4244 75.3012 56.3278 75.2182 56.2913Z" fill="#241726"/>
<path d="M70.4551 56.5606C70.4493 56.5606 70.4434 56.5603 70.4376 56.5597C70.3473 56.55 70.2821 56.4692 70.2917 56.3791C70.3295 56.0234 70.6017 55.3252 71.3606 55.2267C71.4503 55.2139 71.5329 55.2784 71.5445 55.3684C71.5562 55.4586 71.4928 55.5406 71.4029 55.5525C70.7082 55.6427 70.6189 56.4059 70.6181 56.4136C70.6092 56.4981 70.5379 56.5606 70.4551 56.5606Z" fill="#FBFCFF"/>
<path d="M73.1603 54.3416C73.1295 54.3416 73.0984 54.333 73.0706 54.3147C72.9948 54.2654 72.9734 54.1637 73.0228 54.088C73.0437 54.0557 73.5443 53.2983 74.2148 53.2432C74.3062 53.2362 74.3845 53.3029 74.392 53.3933C74.3993 53.4838 74.3321 53.563 74.2417 53.5704C73.7321 53.6124 73.3021 54.2608 73.2978 54.2672C73.2665 54.3154 73.2139 54.3416 73.1603 54.3416Z" fill="#FBFCFF"/>
<path d="M73.5963 58.3245C73.5885 58.3245 73.5804 58.3238 73.5724 58.3226C73.4828 58.3098 73.4206 58.2263 73.4337 58.1365C73.4387 58.1015 73.5637 57.273 74.0149 56.9473C74.1767 56.8309 74.3585 56.7888 74.5554 56.8241C74.6448 56.8399 74.7042 56.9252 74.6884 57.0143C74.6724 57.1038 74.5887 57.1618 74.4981 57.1474C74.3899 57.1282 74.2954 57.1499 74.2076 57.2135C73.9265 57.4159 73.7882 57.9826 73.7585 58.184C73.7467 58.2657 73.6765 58.3245 73.5963 58.3245Z" fill="#FBFCFF"/>
<path d="M27.5178 71.1554C27.4725 71.1554 27.4273 71.1368 27.395 71.1003C27.3747 71.0775 26.8984 70.5621 26.1514 70.9162C26.0697 70.9543 25.9717 70.9201 25.9328 70.8379C25.8939 70.7562 25.9288 70.6581 26.0109 70.6192C26.792 70.2496 27.4188 70.6298 27.6413 70.8828C27.7013 70.951 27.6945 71.0546 27.6264 71.1146C27.5948 71.142 27.5563 71.1554 27.5178 71.1554Z" fill="#241726"/>
<path d="M26.2223 72.1232C26.177 72.1232 26.1319 72.1046 26.0995 72.068C26.0792 72.0449 25.6031 71.5293 24.8559 71.884C24.7744 71.9221 24.6759 71.8879 24.6373 71.8057C24.5984 71.724 24.6333 71.6259 24.7155 71.5869C25.4964 71.2174 26.1233 71.5976 26.3456 71.8505C26.4056 71.9188 26.3989 72.0224 26.3308 72.0824C26.2995 72.1098 26.2608 72.1232 26.2223 72.1232Z" fill="#241726"/>
<path d="M24.0452 71.9377C23.9999 71.9377 23.9547 71.9191 23.9223 71.8825C23.9022 71.8597 23.4272 71.3433 22.6788 71.6982C22.597 71.7366 22.4991 71.7017 22.46 71.6199C22.4213 71.5382 22.4563 71.44 22.5383 71.4011C23.3191 71.031 23.9463 71.4121 24.1686 71.665C24.2286 71.7333 24.2219 71.8369 24.1538 71.8969C24.1224 71.9242 24.0836 71.9377 24.0452 71.9377Z" fill="#241726"/>
<path d="M21.8519 71.0547C21.8038 71.0547 21.7561 71.0339 21.7238 70.9934C21.667 70.9228 21.678 70.8192 21.7488 70.7625C22.4314 70.2134 23.1183 70.4414 23.3858 70.6391C23.4589 70.693 23.4745 70.7956 23.4206 70.8688C23.3672 70.9413 23.2649 70.9574 23.1916 70.9041C23.1666 70.8858 22.6052 70.4949 21.9547 71.0186C21.9244 71.0428 21.888 71.0547 21.8519 71.0547Z" fill="#241726"/>
<path d="M24.2236 70.8744C24.173 70.8744 24.123 70.8509 24.0908 70.807C24.0374 70.7339 24.0533 70.6309 24.1266 70.5777C24.8316 70.0619 25.5089 70.3217 25.7688 70.5311C25.8394 70.5881 25.8503 70.6914 25.7935 70.762C25.737 70.8325 25.6338 70.8434 25.5633 70.7873C25.5399 70.7691 24.9931 70.3511 24.3202 70.8425C24.2911 70.8642 24.2572 70.8744 24.2236 70.8744Z" fill="#241726"/>
<path d="M21.365 72.8065C21.3144 72.8065 21.2645 72.7831 21.2322 72.7392C21.1787 72.666 21.1947 72.5631 21.268 72.5098C21.9731 71.994 22.6503 72.2538 22.9102 72.4632C22.9808 72.5203 22.9917 72.6235 22.9348 72.6942C22.8784 72.7648 22.7755 72.7756 22.7047 72.7195C22.6816 72.7018 22.1345 72.2829 21.4616 72.7746C21.4325 72.7964 21.3986 72.8065 21.365 72.8065Z" fill="#241726"/>
<path d="M19.9716 72.0504C19.9295 72.0504 19.8874 72.0343 19.8553 72.0023C19.7913 71.9381 19.7913 71.8338 19.8556 71.7701C20.4794 71.147 21.1834 71.2996 21.4678 71.467C21.5461 71.5128 21.572 71.6135 21.5259 71.6918C21.4803 71.7695 21.3798 71.796 21.3017 71.7503C21.2741 71.7342 20.6824 71.4093 20.0875 72.0023C20.0556 72.0345 20.0136 72.0504 19.9716 72.0504Z" fill="#241726"/>
<path d="M58.0698 70.556C58.0244 70.556 57.9793 70.5374 57.9469 70.5008C57.9268 70.478 57.4508 69.962 56.7033 70.3167C56.6213 70.3549 56.5235 70.3206 56.4848 70.2385C56.4459 70.1567 56.4807 70.0585 56.5629 70.0197C57.3435 69.6499 57.9708 70.0303 58.1932 70.2833C58.2532 70.3516 58.2465 70.4552 58.1783 70.5152C58.1469 70.5425 58.1083 70.556 58.0698 70.556Z" fill="#241726"/>
<path d="M56.7744 71.5236C56.7291 71.5236 56.684 71.505 56.6516 71.4684C56.6313 71.4456 56.1551 70.9297 55.408 71.2844C55.3263 71.3225 55.2283 71.2883 55.1894 71.2061C55.1505 71.1244 55.1854 71.0261 55.2676 70.9873C56.0482 70.6178 56.6754 70.998 56.8979 71.2509C56.9579 71.3192 56.9512 71.4228 56.8829 71.4828C56.8515 71.51 56.8129 71.5236 56.7744 71.5236Z" fill="#241726"/>
<path d="M54.5971 71.338C54.5518 71.338 54.5066 71.3194 54.4743 71.2829C54.454 71.2601 53.9784 70.7441 53.231 71.0988C53.1488 71.1369 53.0513 71.1027 53.0123 71.0205C52.9734 70.9388 53.0082 70.8405 53.0902 70.8018C53.8712 70.4323 54.498 70.8124 54.7205 71.0654C54.7805 71.1337 54.7738 71.2373 54.7055 71.2973C54.6743 71.3246 54.6357 71.338 54.5971 71.338Z" fill="#241726"/>
<path d="M52.4038 70.455C52.3557 70.455 52.308 70.4342 52.2757 70.3937C52.219 70.3231 52.2301 70.2195 52.3007 70.1628C52.9829 69.614 53.6704 69.8417 53.9379 70.0393C54.011 70.0932 54.0265 70.1959 53.9727 70.269C53.9194 70.3418 53.8166 70.3575 53.7438 70.3043C53.7185 70.2864 53.1574 69.8948 52.5066 70.4189C52.4763 70.4431 52.4399 70.455 52.4038 70.455Z" fill="#241726"/>
<path d="M54.7757 70.2748C54.7251 70.2748 54.6752 70.2513 54.6429 70.2074C54.5895 70.1343 54.6054 70.0313 54.6787 69.978C55.3838 69.4623 56.0609 69.7221 56.3209 69.9315C56.3915 69.9885 56.4024 70.0918 56.3455 70.1624C56.289 70.233 56.186 70.2438 56.1154 70.1877C56.0924 70.1701 55.5455 69.7512 54.8723 70.2429C54.8432 70.2645 54.8091 70.2748 54.7757 70.2748Z" fill="#241726"/>
<path d="M51.9173 72.2069C51.8667 72.2069 51.8168 72.1835 51.7845 72.1396C51.731 72.0664 51.747 71.9635 51.8202 71.9102C52.5252 71.3944 53.2029 71.6542 53.4623 71.8636C53.5331 71.9206 53.544 72.0239 53.4871 72.0946C53.4306 72.1649 53.3276 72.1763 53.257 72.1199C53.2338 72.1016 52.6874 71.6833 52.0138 72.175C51.9848 72.1966 51.9507 72.2069 51.9173 72.2069Z" fill="#241726"/>
<path d="M50.5237 71.451C50.4816 71.451 50.4394 71.4349 50.4074 71.4029C50.3433 71.3388 50.3434 71.2344 50.4077 71.1707C51.0318 70.5469 51.7354 70.7002 52.0199 70.8676C52.098 70.9134 52.124 71.0141 52.078 71.0924C52.0321 71.1701 51.9315 71.196 51.8541 71.1512C51.829 71.1368 51.2363 70.808 50.6396 71.4029C50.6076 71.4349 50.5657 71.451 50.5237 71.451Z" fill="#241726"/>
<path d="M6.33694 66.4599C6.20803 66.4599 6.07866 66.4502 5.95194 66.4313C5.86225 66.4182 5.80037 66.3344 5.81366 66.2449C5.82709 66.155 5.91069 66.0938 6.00037 66.1066C6.20131 66.1361 6.40881 66.1383 6.61194 66.1152C6.70225 66.1058 6.7835 66.1694 6.79381 66.2596C6.80428 66.3497 6.73959 66.4311 6.64944 66.4418C6.54569 66.4538 6.44147 66.4599 6.33694 66.4599ZM7.26866 66.293C7.201 66.293 7.13741 66.251 7.11381 66.1833C7.08366 66.0977 7.1285 66.0041 7.21413 65.9739C7.40272 65.9075 7.59366 65.8191 7.78194 65.711C7.86069 65.6661 7.961 65.6927 8.00616 65.7716C8.05131 65.8502 8.02413 65.9505 7.94553 65.9958C7.73991 66.1138 7.53053 66.2107 7.32319 66.2838C7.30522 66.2902 7.28678 66.293 7.26866 66.293ZM5.34694 66.2524C5.32522 66.2524 5.30287 66.2479 5.28131 66.2386C5.07569 66.1488 4.87444 66.0314 4.68334 65.8894C4.61053 65.8352 4.59553 65.7325 4.64944 65.6597C4.70366 65.5866 4.80647 65.5719 4.87928 65.6257C5.05037 65.7527 5.22975 65.8579 5.41288 65.9377C5.496 65.9739 5.53397 66.0708 5.49756 66.1538C5.47069 66.2155 5.41037 66.2524 5.34694 66.2524ZM8.40584 65.6478C8.35741 65.6478 8.30959 65.6268 8.27709 65.586C8.22069 65.5147 8.23256 65.4114 8.3035 65.355C8.46569 65.2261 8.62381 65.0824 8.7735 64.9278C8.83663 64.8624 8.94053 64.8611 9.00569 64.9239C9.071 64.9871 9.07256 65.091 9.00959 65.1561C8.84991 65.321 8.68116 65.4743 8.50787 65.6122C8.47772 65.6363 8.44162 65.6478 8.40584 65.6478ZM4.29319 65.4836C4.24944 65.4836 4.20584 65.4663 4.17334 65.4316C4.02584 65.2744 3.88162 65.0977 3.74491 64.9066C3.69209 64.8328 3.70912 64.7302 3.78287 64.6772C3.85694 64.6246 3.95928 64.6416 4.01209 64.7153C4.14037 64.895 4.27522 65.0605 4.41287 65.2071C4.47506 65.2732 4.47178 65.3771 4.40569 65.4389C4.37397 65.4688 4.3335 65.4836 4.29319 65.4836ZM9.31881 64.7071C9.28428 64.7071 9.24959 64.6961 9.22006 64.6736C9.14756 64.6191 9.13334 64.5161 9.18803 64.4436C9.31787 64.2718 9.436 64.0933 9.53866 63.9135C9.58334 63.8349 9.68366 63.8077 9.76272 63.8522C9.84147 63.8974 9.86881 63.9975 9.82381 64.0764C9.71413 64.2685 9.58834 64.4588 9.45006 64.6419C9.41772 64.6847 9.3685 64.7071 9.31881 64.7071ZM3.52662 64.4213C3.46912 64.4213 3.41303 64.3908 3.38303 64.3369C3.27022 64.1349 3.17459 63.9261 3.09834 63.7169C3.06725 63.6316 3.11116 63.5377 3.19647 63.5066C3.28162 63.4755 3.376 63.5194 3.40694 63.6047C3.47709 63.7975 3.56569 63.9902 3.66975 64.1772C3.71397 64.2564 3.68553 64.3564 3.60631 64.4005C3.58116 64.4146 3.55366 64.4213 3.52662 64.4213ZM3.08272 63.1916C3.00428 63.1916 2.93506 63.1355 2.921 63.0557C2.88412 62.843 2.86537 62.6269 2.86537 62.4122L3.02991 62.3735L3.19397 62.3939C3.19381 62.6079 3.211 62.8055 3.24459 62.9991C3.26022 63.0886 3.20037 63.1736 3.11084 63.1889C3.10147 63.191 3.09194 63.1916 3.08272 63.1916ZM3.09616 61.8853C3.08584 61.8853 3.07569 61.8844 3.06522 61.8825C2.976 61.8655 2.91772 61.7793 2.93475 61.6903C2.97694 61.4703 3.03881 61.2494 3.11912 61.0325C3.15069 60.9475 3.24444 60.9039 3.33022 60.9357C3.41522 60.9671 3.45866 61.0618 3.42709 61.1468C3.35319 61.3463 3.296 61.5499 3.25741 61.7519C3.24225 61.8305 3.1735 61.8853 3.09616 61.8853ZM3.54709 60.6577C3.52006 60.6577 3.49287 60.651 3.46772 60.6372C3.38834 60.5933 3.35959 60.4932 3.40366 60.4139C3.51194 60.2186 3.63616 60.0272 3.77303 59.8447C3.82725 59.7722 3.93053 59.7572 4.00287 59.8118C4.07553 59.8663 4.09022 59.9693 4.03569 60.0418C3.90803 60.2124 3.79194 60.391 3.69116 60.5732C3.661 60.6272 3.60475 60.6577 3.54709 60.6577ZM6.80694 60.3238C6.80366 60.3238 6.80037 60.3238 6.79694 60.3235C6.58084 60.3107 6.35272 60.2757 6.11928 60.2196C6.03131 60.1985 5.97694 60.1096 5.99803 60.0213C6.01912 59.9335 6.10663 59.8796 6.19631 59.9C6.41084 59.9518 6.61959 59.9838 6.81663 59.9957C6.90709 60.0011 6.97616 60.0788 6.97069 60.1693C6.96553 60.2564 6.89319 60.3238 6.80694 60.3238ZM7.45975 60.2791C7.38506 60.2791 7.31741 60.2278 7.29991 60.1518C7.27959 60.0636 7.33475 59.9753 7.42303 59.9549C7.63787 59.9052 7.7985 59.8163 7.88725 59.6977C7.94131 59.6249 8.04444 59.6099 8.11709 59.6643C8.18975 59.7185 8.20459 59.8214 8.15038 59.8939C8.01256 60.0786 7.79272 60.2066 7.49694 60.275C7.48444 60.2778 7.47194 60.2791 7.45975 60.2791ZM5.53225 60.0239C5.51194 60.0239 5.491 60.02 5.471 60.0121C5.25975 59.9271 5.05413 59.828 4.85959 59.7171C4.78069 59.6722 4.75334 59.5718 4.79819 59.4928C4.84287 59.4139 4.94319 59.3868 5.02225 59.4316C5.20413 59.5352 5.39616 59.6282 5.59366 59.7074C5.67787 59.741 5.7185 59.8369 5.68475 59.921C5.65881 59.985 5.59709 60.0239 5.53225 60.0239ZM4.331 59.6093C4.28975 59.6093 4.2485 59.5938 4.21647 59.5627C4.15147 59.4996 4.15006 59.3957 4.21319 59.3305C4.22334 59.3202 4.23334 59.31 4.2435 59.2997C4.08084 59.1699 3.9285 59.0291 3.78944 58.8808C3.72741 58.8147 3.73069 58.7108 3.79678 58.6489C3.86334 58.5868 3.96694 58.5899 4.02897 58.6563C4.16741 58.8038 4.32053 58.9433 4.48428 59.0713C4.56022 59.0039 4.63803 58.9388 4.71741 58.8766C4.78881 58.8202 4.89209 58.833 4.94803 58.9043C5.00412 58.9755 4.99178 59.0788 4.92037 59.1346C4.75475 59.2647 4.596 59.4078 4.44834 59.5596C4.41647 59.5925 4.37381 59.6093 4.331 59.6093ZM8.10194 59.333C8.02991 59.333 7.96381 59.2852 7.94381 59.2124C7.92194 59.1338 7.8885 59.0491 7.84397 58.961C7.79537 58.8647 7.73741 58.7788 7.67131 58.7057C7.61053 58.6383 7.61584 58.5347 7.68319 58.4738C7.75006 58.4135 7.85428 58.4183 7.91506 58.4857C8.00069 58.5807 8.07553 58.6907 8.13709 58.8128C8.19147 58.9207 8.23287 59.0255 8.26038 59.1252C8.28459 59.2124 8.23334 59.3028 8.14584 59.3272C8.13131 59.3311 8.11662 59.333 8.10194 59.333ZM5.36241 58.801C5.30569 58.801 5.25053 58.7714 5.22022 58.7189C5.17475 58.6407 5.20162 58.54 5.28006 58.4947C5.48631 58.3753 5.69459 58.2769 5.89959 58.2022C5.98491 58.1718 6.07881 58.215 6.11022 58.3C6.14131 58.3853 6.09741 58.4796 6.01225 58.5107C5.82522 58.5789 5.63444 58.6691 5.44475 58.7788C5.4185 58.7939 5.39022 58.801 5.36241 58.801ZM3.50334 58.418C3.44991 58.418 3.39756 58.3921 3.36584 58.3439C3.23959 58.1518 3.13147 57.9478 3.04397 57.738C3.00897 57.6543 3.04866 57.5582 3.13241 57.5232C3.216 57.4894 3.31241 57.5277 3.34709 57.6116C3.42678 57.8027 3.52537 57.9885 3.64037 58.1636C3.69006 58.2393 3.66912 58.3413 3.59319 58.391C3.56553 58.4094 3.53428 58.418 3.50334 58.418ZM7.2435 58.4168C7.22803 58.4168 7.21256 58.4146 7.19694 58.41C7.02459 58.3591 6.82366 58.3436 6.61084 58.3668C6.51897 58.3757 6.43959 58.3116 6.42975 58.2211C6.41991 58.131 6.48506 58.0502 6.57522 58.0402C6.83303 58.0119 7.07616 58.0319 7.28991 58.095C7.37694 58.1207 7.42647 58.2121 7.40084 58.2989C7.37975 58.3705 7.31428 58.4168 7.2435 58.4168ZM3.00178 57.2133C2.92569 57.2133 2.85741 57.16 2.84131 57.0829C2.79522 56.8629 2.7685 56.6341 2.76178 56.4028C2.75928 56.3121 2.83053 56.2364 2.92116 56.2338C3.01178 56.2305 3.08741 56.3027 3.09022 56.3932C3.09631 56.6052 3.12069 56.8146 3.16272 57.0153C3.18131 57.1043 3.12444 57.1911 3.03569 57.2097C3.02428 57.2124 3.01287 57.2133 3.00178 57.2133ZM2.93553 55.9055C2.93241 55.9055 2.92944 55.9055 2.92631 55.9052C2.83569 55.9003 2.76631 55.8229 2.77147 55.7324C2.78412 55.5024 2.80741 55.2772 2.84053 55.0633C2.85459 54.9741 2.9385 54.9128 3.02803 54.9264C3.11772 54.9405 3.17912 55.0243 3.16522 55.1141C3.13366 55.3171 3.11147 55.5314 3.09928 55.7503C3.09444 55.8378 3.02209 55.9055 2.93553 55.9055ZM3.14147 54.6121C3.12662 54.6121 3.11147 54.6102 3.09662 54.606C3.00944 54.5813 2.95866 54.4905 2.98334 54.4033C3.04709 54.1775 3.12537 53.9624 3.216 53.7635C3.25366 53.6807 3.35147 53.6449 3.4335 53.6821C3.51616 53.7196 3.55256 53.8171 3.51491 53.8996C3.43116 54.0836 3.3585 54.2832 3.29928 54.4925C3.27897 54.5649 3.21303 54.6121 3.14147 54.6121ZM5.06928 53.5247C5.06319 53.5247 5.05709 53.5244 5.05084 53.5238C4.81944 53.4978 4.59194 53.4443 4.37459 53.3641C4.28944 53.333 4.246 53.2383 4.27725 53.1533C4.30881 53.0683 4.40381 53.0247 4.48819 53.0561C4.68069 53.1271 4.88225 53.1744 5.08741 53.1972C5.17756 53.2075 5.24241 53.2886 5.23241 53.3788C5.22287 53.4625 5.15178 53.5247 5.06928 53.5247ZM5.72413 53.5141C5.64428 53.5141 5.57428 53.4557 5.56194 53.3746C5.54834 53.2847 5.60991 53.201 5.69959 53.1875C5.92069 53.1539 6.11647 53.0872 6.251 52.9989C6.32662 52.9496 6.42866 52.971 6.47819 53.0468C6.52787 53.1224 6.50663 53.2244 6.43053 53.2741C6.25506 53.3886 6.01928 53.471 5.74881 53.5121C5.74069 53.5135 5.73241 53.5141 5.72413 53.5141ZM3.68991 53.426C3.65725 53.426 3.62397 53.4163 3.59522 53.3958C3.52116 53.3435 3.5035 53.2408 3.556 53.1668C3.59756 53.108 3.64084 53.051 3.68537 52.9961C3.52272 52.8779 3.371 52.7414 3.23366 52.5897C3.17272 52.5224 3.17803 52.4185 3.24522 52.3575C3.31241 52.2972 3.41631 52.3021 3.47709 52.3691C3.60741 52.5132 3.75209 52.6418 3.90756 52.7511C3.94319 52.7161 3.97944 52.6822 4.01647 52.6494C4.08397 52.5888 4.18772 52.5952 4.24819 52.6632C4.30834 52.7311 4.30209 52.835 4.23428 52.895C4.08537 53.0272 3.94725 53.1824 3.82428 53.3566C3.79225 53.4019 3.74147 53.426 3.68991 53.426ZM6.49913 52.7553C6.45069 52.7553 6.40287 52.7341 6.37037 52.6935C6.35897 52.6791 6.34569 52.6646 6.33069 52.6502C6.21897 52.5436 6.06975 52.4622 5.90069 52.415C5.8135 52.3907 5.76225 52.3002 5.78662 52.213C5.811 52.1255 5.90147 52.0741 5.98881 52.0988C6.20928 52.16 6.406 52.2688 6.55787 52.4132C6.58491 52.4394 6.60772 52.4641 6.62741 52.4888C6.68366 52.56 6.67194 52.6633 6.601 52.7197C6.571 52.7438 6.53491 52.7553 6.49913 52.7553ZM4.6685 52.5716C4.60756 52.5716 4.54912 52.5375 4.52084 52.4793C4.481 52.3978 4.51491 52.2997 4.59631 52.2599C4.81506 52.153 5.04241 52.0838 5.27225 52.0533C5.36397 52.0399 5.44459 52.105 5.45647 52.1947C5.46834 52.2846 5.40506 52.3672 5.31522 52.3791C5.12053 52.4047 4.92709 52.4638 4.74038 52.5549C4.71709 52.5661 4.69256 52.5716 4.6685 52.5716ZM2.971 52.1132C2.91444 52.1132 2.85928 52.0839 2.82881 52.0314C2.71866 51.8416 2.62147 51.6327 2.54037 51.4111C2.50912 51.3261 2.55272 51.2319 2.63787 51.2003C2.72366 51.1696 2.81725 51.2129 2.84866 51.2982C2.92334 51.5018 3.01241 51.693 3.11303 51.8664C3.15866 51.945 3.13178 52.0454 3.05334 52.091C3.02741 52.1061 2.99897 52.1132 2.971 52.1132ZM2.51303 50.8886C2.43741 50.8886 2.36928 50.836 2.35272 50.7591C2.33959 50.6982 2.32725 50.636 2.31569 50.5727C2.28569 50.4085 2.26178 50.2494 2.24397 50.0958C2.23334 50.0057 2.29803 49.9243 2.38819 49.9136C2.48053 49.9047 2.55959 49.9682 2.57022 50.058C2.58741 50.2046 2.60991 50.3566 2.63866 50.5138C2.64959 50.5738 2.66131 50.6321 2.67381 50.6899C2.69287 50.7783 2.63662 50.866 2.54787 50.8849C2.53616 50.8874 2.52459 50.8886 2.51303 50.8886ZM2.36491 49.586C2.27491 49.586 2.20162 49.5135 2.20069 49.4233L2.20053 49.3771C2.20053 49.1599 2.2135 48.9475 2.23897 48.7466C2.25053 48.6564 2.33334 48.5936 2.42256 48.6043C2.51256 48.6158 2.57616 48.6978 2.56475 48.7877C2.54084 48.9757 2.52881 49.1738 2.52881 49.3772L2.52897 49.4202C2.52991 49.5107 2.45709 49.585 2.36647 49.586C2.366 49.586 2.36537 49.586 2.36491 49.586ZM2.53631 48.2899C2.52069 48.2899 2.50491 48.2877 2.48928 48.2832C2.40241 48.2569 2.35303 48.1655 2.37897 48.0785C2.446 47.8546 2.53287 47.6403 2.63741 47.4422C2.67975 47.3621 2.77881 47.3316 2.85928 47.3736C2.93944 47.416 2.97022 47.5153 2.92787 47.5955C2.83319 47.7747 2.75428 47.9691 2.6935 48.1728C2.67225 48.2439 2.60709 48.2899 2.53631 48.2899ZM3.14678 47.1385C3.10975 47.1385 3.07241 47.126 3.04178 47.1004C2.97225 47.0422 2.96272 46.9386 3.021 46.8691C3.16756 46.6933 3.33428 46.5318 3.51647 46.3886C3.58787 46.3332 3.69084 46.345 3.74694 46.4164C3.80303 46.4877 3.79053 46.591 3.71912 46.6471C3.55506 46.7757 3.40506 46.9213 3.27303 47.0794C3.24069 47.1183 3.19397 47.1385 3.14678 47.1385ZM4.17241 46.3305C4.11225 46.3305 4.05444 46.2975 4.02553 46.24C3.98475 46.1589 4.01756 46.0603 4.0985 46.0197C4.46631 45.8347 4.74334 45.7766 4.75491 45.7741C4.84428 45.7552 4.93037 45.8128 4.94866 45.9018C4.96694 45.9905 4.90991 46.0775 4.82116 46.0958C4.81881 46.0964 4.57225 46.1491 4.24616 46.313C4.22241 46.3252 4.19709 46.3305 4.17241 46.3305Z" fill="#241726"/>
<path d="M73.7671 46.743C73.7624 46.743 73.7575 46.7427 73.753 46.7424C73.525 46.7229 73.296 46.6732 73.0722 46.5943C72.9868 46.5641 72.9419 46.4702 72.9721 46.3849C73.0022 46.2993 73.0955 46.2537 73.1816 46.2845C73.379 46.354 73.5807 46.398 73.7808 46.4154C73.8713 46.423 73.9382 46.5026 73.9305 46.593C73.9233 46.6787 73.8515 46.743 73.7671 46.743ZM74.4205 46.7113C74.3429 46.7113 74.2738 46.6562 74.2591 46.577C74.2425 46.4877 74.3016 46.4021 74.3908 46.3859C74.5875 46.3493 74.7847 46.2865 74.9766 46.1988C75.0594 46.1613 75.1563 46.1976 75.1943 46.2799C75.2318 46.3627 75.1955 46.4598 75.113 46.4977C74.8966 46.5965 74.6738 46.6674 74.4505 46.7085C74.4404 46.7104 74.4304 46.7113 74.4205 46.7113ZM72.5361 46.3188C72.5068 46.3188 72.4769 46.3109 72.45 46.2945C72.2602 46.1771 72.076 46.0382 71.9024 45.8807C71.8352 45.8201 71.83 45.7162 71.891 45.6488C71.9516 45.5815 72.0558 45.5763 72.123 45.6376C72.2816 45.7813 72.4497 45.9084 72.6225 46.0148C72.6997 46.0626 72.7236 46.1637 72.676 46.2409C72.645 46.2912 72.5911 46.3188 72.5361 46.3188ZM75.6102 46.1802C75.5593 46.1802 75.509 46.1565 75.4769 46.1123C75.4238 46.0385 75.4404 45.9359 75.514 45.8829C75.6755 45.7662 75.8371 45.6285 75.9941 45.4737C76.0591 45.4102 76.1629 45.4109 76.2263 45.4755C76.29 45.5401 76.2893 45.644 76.2247 45.7077C76.0557 45.8741 75.8815 46.0227 75.7061 46.149C75.6771 46.1702 75.6435 46.1802 75.6102 46.1802ZM71.5655 45.4432C71.5168 45.4432 71.4686 45.4216 71.4363 45.3804C71.29 45.1943 71.1641 45.0007 71.0618 44.8054C71.0197 44.7249 71.0507 44.6257 71.131 44.5834C71.2115 44.542 71.3105 44.5724 71.3525 44.6526C71.4457 44.8305 71.5607 45.0073 71.6944 45.1776C71.7505 45.2488 71.738 45.3521 71.6668 45.4082C71.6368 45.4316 71.601 45.4432 71.5655 45.4432ZM76.5483 45.2671C76.5122 45.2671 76.4758 45.2552 76.4455 45.2309C76.3749 45.1741 76.3638 45.0705 76.4205 44.9999C76.5029 44.8973 76.5854 44.7885 76.6675 44.6738C76.713 44.6099 76.7557 44.5465 76.7957 44.4837C76.8449 44.4074 76.9463 44.3849 77.0224 44.4334C77.099 44.4821 77.1213 44.5838 77.0727 44.6601C77.0294 44.728 76.9835 44.796 76.9347 44.8645C76.8488 44.9851 76.7625 45.0988 76.6763 45.206C76.644 45.2463 76.5965 45.2671 76.5483 45.2671ZM77.2397 44.1555C77.2188 44.1555 77.1972 44.1513 77.1768 44.143C77.093 44.108 77.0533 44.0123 77.088 43.9282C77.1702 43.731 77.2304 43.5309 77.2671 43.3335C77.2838 43.2443 77.3685 43.1854 77.4588 43.2023C77.548 43.219 77.6066 43.3046 77.5902 43.3937C77.5491 43.6137 77.4822 43.836 77.3915 44.0545C77.3652 44.1173 77.3041 44.1555 77.2397 44.1555ZM77.4729 42.8745C77.3861 42.8745 77.3136 42.8065 77.309 42.7188C77.2983 42.5149 77.2636 42.3102 77.2054 42.1104C77.18 42.0235 77.23 41.9324 77.3171 41.9068C77.4041 41.8821 77.4952 41.9315 77.5205 42.0187C77.5858 42.2429 77.625 42.4726 77.6369 42.7015C77.6416 42.7923 77.5719 42.8696 77.4815 42.874C77.4786 42.8745 77.4758 42.8745 77.4729 42.8745ZM77.1146 41.6224C77.0558 41.6224 76.9991 41.591 76.9694 41.5355C76.8743 41.357 76.7585 41.1805 76.6254 41.0115C76.5694 40.9399 76.5816 40.8366 76.6529 40.7809C76.7241 40.7245 76.8277 40.7376 76.8835 40.808C77.0286 40.9924 77.155 41.1852 77.2594 41.3809C77.3021 41.461 77.2718 41.5605 77.1918 41.6032C77.1669 41.6163 77.1405 41.6224 77.1146 41.6224ZM73.929 40.8655C73.8397 40.8655 73.7665 40.794 73.7647 40.7046C73.763 40.6141 73.835 40.5391 73.9255 40.5373C74.1088 40.5337 74.3105 40.4982 74.525 40.4318C74.6127 40.4046 74.7036 40.4537 74.7305 40.5402C74.7572 40.6268 74.7088 40.7188 74.6222 40.7455C74.3782 40.8209 74.146 40.8616 73.9321 40.8659C73.9311 40.8655 73.93 40.8655 73.929 40.8655ZM73.3011 40.7112C73.2691 40.7112 73.2366 40.7018 73.2083 40.6823C73.0004 40.5393 72.8858 40.3176 72.8858 40.0585C72.8858 40.0259 72.8875 39.9921 72.8913 39.9577C72.9008 39.8673 72.9802 39.8005 73.0721 39.8118C73.1622 39.8215 73.2275 39.9023 73.2179 39.9924C73.2155 40.0152 73.2143 40.0373 73.2143 40.0585C73.2143 40.2105 73.2749 40.3295 73.3944 40.4116C73.4691 40.4629 73.488 40.5652 73.4368 40.6399C73.4047 40.6865 73.3533 40.7112 73.3011 40.7112ZM76.3099 40.5913C76.2696 40.5913 76.2293 40.5766 76.1977 40.5471C76.0597 40.4176 75.9119 40.2954 75.7575 40.183C75.5904 40.2955 75.4216 40.3963 75.2549 40.4826C75.1741 40.5243 75.075 40.4926 75.0336 40.412C74.9921 40.3315 75.0235 40.2323 75.1041 40.1907C75.2835 40.098 75.4658 39.9871 75.6463 39.861C75.6966 39.8257 75.7605 39.8232 75.8125 39.8482C75.8415 39.8504 75.8704 39.8601 75.8957 39.878C76.081 40.0088 76.2582 40.1535 76.4222 40.3071C76.4885 40.3693 76.4918 40.4732 76.4297 40.5393C76.3972 40.574 76.3536 40.5913 76.3099 40.5913ZM75.2396 39.8351C75.2143 39.8351 75.1885 39.8293 75.1643 39.8168C74.97 39.716 74.7749 39.634 74.5843 39.5727C74.4979 39.5451 74.4504 39.4527 74.4782 39.3662C74.5061 39.2799 74.599 39.2324 74.6847 39.2604C74.8927 39.3271 75.1049 39.4163 75.3154 39.5249C75.3958 39.5666 75.4272 39.6657 75.3855 39.7462C75.3563 39.8026 75.2991 39.8351 75.2396 39.8351ZM76.2565 39.7545C76.2107 39.7545 76.1652 39.7355 76.1329 39.6984C76.0732 39.6301 76.08 39.5262 76.1485 39.4665C76.3057 39.3291 76.4615 39.1801 76.6119 39.0226C76.6744 38.9571 76.7788 38.9549 76.844 39.0174C76.9096 39.0799 76.9119 39.1838 76.8493 39.2496C76.6922 39.4138 76.5293 39.5701 76.3646 39.714C76.3332 39.741 76.2947 39.7545 76.2565 39.7545ZM73.3582 39.5826C73.304 39.5826 73.2508 39.5557 73.2196 39.5065C73.1708 39.4302 73.1933 39.3285 73.2696 39.2798C73.434 39.1752 73.6449 39.122 73.8965 39.122C73.9257 39.1195 73.9644 39.1229 73.9997 39.1248C74.0904 39.1293 74.1599 39.2065 74.1555 39.297C74.1508 39.3877 74.0733 39.4612 73.9832 39.4526C73.9538 39.451 73.9216 39.448 73.8969 39.4504C73.7111 39.4504 73.5555 39.4873 73.4465 39.5568C73.419 39.5743 73.3883 39.5826 73.3582 39.5826ZM77.1641 38.8074C77.1277 38.8074 77.0911 38.7952 77.0607 38.7705C76.9902 38.7135 76.9797 38.6099 77.0369 38.5396C77.1691 38.377 77.3 38.2038 77.4263 38.0249C77.4785 37.9509 77.5815 37.9329 77.6552 37.9851C77.7293 38.0374 77.7471 38.1399 77.6949 38.214C77.5644 38.399 77.4288 38.5784 77.2918 38.7468C77.2591 38.787 77.2119 38.8074 77.1641 38.8074ZM77.921 37.7352C77.8916 37.7352 77.8619 37.7276 77.8352 37.7109C77.7579 37.6634 77.7336 37.5624 77.7813 37.4851C77.861 37.3552 77.94 37.2209 78.018 37.0816C78.0469 37.0298 78.0744 36.9784 78.1005 36.9268C78.1418 36.846 78.2407 36.8141 78.3211 36.8543C78.4021 36.8954 78.4346 36.9941 78.3936 37.0749C78.3654 37.1304 78.3358 37.1862 78.3046 37.242C78.2243 37.3849 78.1432 37.5232 78.0611 37.657C78.03 37.7073 77.9761 37.7352 77.921 37.7352ZM78.4943 36.5576C78.4783 36.5576 78.4621 36.5554 78.446 36.5502C78.3593 36.5237 78.3107 36.432 78.3372 36.3449C78.3999 36.1416 78.4418 35.9363 78.4618 35.7349C78.4705 35.6445 78.548 35.581 78.6413 35.5874C78.7315 35.5963 78.7975 35.677 78.7885 35.767C78.7663 35.9905 78.7202 36.2173 78.6511 36.4418C78.6294 36.5123 78.5646 36.5576 78.4943 36.5576ZM78.6182 35.2599C78.5361 35.2599 78.4652 35.1987 78.4552 35.1149C78.4311 34.9132 78.3844 34.7096 78.3165 34.5107C78.2871 34.4248 78.333 34.3315 78.4188 34.302C78.5043 34.2734 78.5982 34.3187 78.6272 34.4043C78.7027 34.6252 78.7546 34.8513 78.7813 35.0765C78.7921 35.1663 78.7277 35.248 78.6377 35.2587C78.6313 35.2596 78.6246 35.2599 78.6182 35.2599ZM78.2021 34.0248C78.1449 34.0248 78.0894 33.9949 78.0591 33.9413C77.9586 33.7643 77.8396 33.5888 77.7047 33.4198C77.6482 33.3488 77.6597 33.2455 77.7305 33.1891C77.8016 33.133 77.9049 33.144 77.9613 33.2151C78.1069 33.3976 78.236 33.5874 78.3449 33.7796C78.3896 33.8585 78.3619 33.9585 78.283 34.0032C78.2572 34.018 78.2296 34.0248 78.2021 34.0248ZM77.3888 32.9971C77.3479 32.9971 77.3071 32.982 77.275 32.9515C77.125 32.8079 76.9618 32.669 76.7893 32.5387C76.7169 32.4838 76.7025 32.3809 76.7572 32.3084C76.8118 32.2359 76.9147 32.2221 76.9872 32.2763C77.1699 32.4143 77.3432 32.5618 77.5025 32.7141C77.568 32.777 77.5702 32.8809 77.5074 32.9463C77.475 32.9802 77.4319 32.9971 77.3888 32.9971ZM73.4713 32.7765C73.1515 32.7765 72.9497 32.561 72.9318 32.2001C72.9272 32.1096 72.9971 32.0327 73.0877 32.0282C73.1744 32.0135 73.2554 32.0934 73.2599 32.1841C73.273 32.448 73.4069 32.448 73.4713 32.448C73.5605 32.448 73.644 32.5193 73.6461 32.6084C73.648 32.6976 73.5891 32.772 73.4999 32.7759C73.4974 32.7762 73.4738 32.7765 73.4713 32.7765ZM74.0971 32.5391C74.0435 32.5391 73.9911 32.5132 73.9596 32.4651C73.9099 32.3891 73.9308 32.2874 74.0068 32.2377C74.1644 32.1341 74.3258 32.0007 74.4865 31.8404C74.5508 31.777 74.6547 31.7766 74.7186 31.8407C74.7825 31.9052 74.7825 32.0091 74.7183 32.0732C74.5421 32.249 74.3633 32.3968 74.1871 32.5123C74.1594 32.5305 74.1282 32.5391 74.0971 32.5391ZM76.3436 32.2054C76.3149 32.2054 76.2858 32.198 76.2594 32.182C76.0754 32.072 75.885 31.9713 75.6941 31.8834C75.6118 31.8455 75.5758 31.748 75.6138 31.6655C75.6516 31.5827 75.7483 31.5465 75.8318 31.5851C76.0333 31.678 76.234 31.784 76.4282 31.9004C76.506 31.947 76.5313 32.0476 76.4847 32.1255C76.454 32.1768 76.3994 32.2054 76.3436 32.2054ZM73.2708 31.7405C73.2313 31.7405 73.1919 31.7265 73.1605 31.6979C73.0933 31.637 73.0883 31.533 73.1493 31.466C73.3046 31.2948 73.5366 31.1896 73.839 31.1534C73.9311 31.1421 74.0108 31.2066 74.0218 31.2968C74.0325 31.3866 73.9683 31.4684 73.8783 31.4793C73.6596 31.5059 73.4916 31.5774 73.3922 31.6868C73.3599 31.7223 73.3154 31.7405 73.2708 31.7405ZM75.1513 31.6579C75.1344 31.6579 75.1175 31.6554 75.1007 31.6499C75.0736 31.6413 75.0466 31.6326 75.0197 31.6246C74.9969 31.6227 74.9741 31.6163 74.9533 31.6048C74.7927 31.5585 74.6366 31.5237 74.488 31.5005C74.3985 31.4865 74.3371 31.4027 74.3511 31.3129C74.365 31.2237 74.4483 31.1635 74.5388 31.176C74.6777 31.1979 74.8218 31.2287 74.9697 31.2684C75.0699 31.1285 75.1646 30.9816 75.2519 30.8302C75.2972 30.7516 75.3979 30.7245 75.4763 30.7702C75.5549 30.8155 75.5818 30.9159 75.5365 30.9945C75.4571 31.1318 75.3721 31.2659 75.2825 31.3948C75.3136 31.4362 75.3249 31.4916 75.3077 31.5446C75.285 31.6135 75.2207 31.6579 75.1513 31.6579ZM75.6885 30.4891C75.6668 30.4891 75.6447 30.4849 75.6233 30.4757C75.54 30.4398 75.5019 30.3429 75.5379 30.2599C75.6219 30.0655 75.6955 29.8641 75.7569 29.6612C75.783 29.5746 75.8749 29.5255 75.9616 29.5515C76.0483 29.5777 76.0975 29.6691 76.0713 29.7562C76.0063 29.9713 75.9283 30.1846 75.8394 30.3902C75.8125 30.4523 75.7519 30.4891 75.6885 30.4891ZM76.0677 29.2348C76.058 29.2348 76.0483 29.2338 76.0383 29.2323C75.9491 29.2162 75.8899 29.1305 75.9058 29.0415C75.9435 28.833 75.9694 28.6201 75.9827 28.4087C75.9883 28.3182 76.0671 28.2451 76.1571 28.2551C76.2475 28.2609 76.3163 28.3388 76.3105 28.4293C76.2965 28.6535 76.269 28.879 76.2293 29.0999C76.2147 29.179 76.1457 29.2348 76.0677 29.2348ZM76.1411 27.9276C76.0574 27.9276 75.986 27.8641 75.9779 27.7791C75.9575 27.5668 75.9168 27.3626 75.8563 27.172C75.8288 27.0854 75.8766 26.993 75.9632 26.9657C76.05 26.9391 76.1421 26.9862 76.1694 27.0726C76.2368 27.2852 76.2825 27.5123 76.3047 27.7477C76.3133 27.8382 76.2472 27.9184 76.1569 27.927C76.1516 27.9271 76.1463 27.9276 76.1411 27.9276ZM75.7435 26.6909C75.688 26.6909 75.6338 26.6626 75.6029 26.612C75.498 26.4388 75.3705 26.2755 75.2236 26.126C75.1602 26.0612 75.1611 25.9573 75.2257 25.8938C75.2905 25.8301 75.394 25.831 75.458 25.8957C75.6224 26.0632 75.7658 26.247 75.8838 26.4413C75.9308 26.519 75.9061 26.6199 75.8285 26.6671C75.8018 26.683 75.7724 26.6909 75.7435 26.6909ZM74.8361 25.7562C74.8044 25.7562 74.7722 25.7468 74.7438 25.7276C74.5779 25.6146 74.3933 25.5098 74.1952 25.4165C74.1133 25.378 74.0782 25.2799 74.1168 25.198C74.1552 25.1155 74.2536 25.081 74.3354 25.1195C74.549 25.2202 74.7486 25.3334 74.9288 25.4562C75.0036 25.5071 75.0232 25.6095 74.9719 25.6843C74.9402 25.7312 74.8885 25.7562 74.8361 25.7562ZM73.654 25.1907C73.6369 25.1907 73.6197 25.188 73.6029 25.1827C73.4055 25.1179 73.1972 25.0615 72.9841 25.0146C72.8955 24.9954 72.8394 24.9077 72.8588 24.8193C72.878 24.7304 72.965 24.6743 73.0543 24.6938C73.2782 24.7429 73.4972 24.8023 73.705 24.8702C73.7911 24.8988 73.8382 24.9915 73.8099 25.0777C73.7874 25.1468 73.723 25.1907 73.654 25.1907ZM72.3705 24.906C72.3636 24.906 72.3566 24.9057 72.3494 24.9048C71.969 24.856 71.7132 24.8538 71.7105 24.8538C71.6199 24.8532 71.5469 24.7791 71.5474 24.6887C71.548 24.5982 71.6213 24.5254 71.7116 24.5254C71.723 24.5276 71.9775 24.5263 72.391 24.579C72.481 24.5905 72.5444 24.6726 72.533 24.7627C72.5227 24.8454 72.4519 24.906 72.3705 24.906Z" fill="#241726"/>
<path d="M65.117 34.8179C65.117 34.8179 61.6174 28.9382 62.9962 29.2622C64.3751 29.5863 65.4768 33.2955 65.4768 33.2955C65.4768 33.2955 65.6734 25.8696 66.6006 26.9861C67.5279 28.1027 66.6006 31.9046 66.6006 31.9046C66.6006 31.9046 66.5921 25.7769 67.7554 26.9861C68.9187 28.1954 67.7554 32.3683 67.7554 32.3683C67.7554 32.3683 68.9187 27.2207 69.4751 28.2182C70.0315 29.2155 68.6406 33.3885 68.6406 33.3885C68.6406 33.3885 70.5879 30.1315 70.9588 30.8791C71.3298 31.6266 67.7554 36.0777 67.7554 36.0777V39.2305L64.7459 38.703L65.117 34.8179Z" fill="#E38B72"/>
<path d="M66.8303 35.252C66.8158 35.252 66.801 35.2502 66.7863 35.2459C66.6991 35.2219 66.6478 35.1314 66.6719 35.0439C66.7522 34.7533 66.8842 33.9211 66.5338 33.5663C66.3366 33.3664 65.995 33.3286 65.5186 33.4541C65.4313 33.4784 65.3413 33.4248 65.318 33.337C65.2949 33.2495 65.3474 33.1597 65.4349 33.1366C66.0331 32.9791 66.4817 33.0464 66.768 33.3361C67.323 33.8989 67.0021 35.0819 66.9883 35.1319C66.9683 35.2047 66.9022 35.252 66.8303 35.252Z" fill="#241726"/>
<path d="M66.6007 32.0689C66.5135 32.0689 66.4409 32.0003 66.4368 31.912C66.4057 31.2298 66.5463 29.3305 66.5524 29.25C66.559 29.1595 66.6388 29.0903 66.7284 29.0983C66.8188 29.105 66.8866 29.1839 66.8799 29.2744C66.8785 29.2939 66.7348 31.2347 66.7649 31.8972C66.7691 31.9877 66.6988 32.0647 66.6084 32.0684C66.6059 32.0689 66.6034 32.0689 66.6007 32.0689Z" fill="#241726"/>
<path d="M67.7556 32.5318C67.7464 32.5318 67.737 32.5312 67.7276 32.5296C67.6381 32.5143 67.5782 32.4292 67.5935 32.3398L68.0915 29.4392C68.1068 29.35 68.1918 29.2898 68.2811 29.3051C68.3706 29.3204 68.4304 29.4054 68.4151 29.495L67.9171 32.3956C67.9035 32.4754 67.8342 32.5318 67.7556 32.5318Z" fill="#241726"/>
<path d="M63.8083 35.667C63.8083 35.667 63.9461 45.6573 63.2427 45.9356C62.5393 46.2139 55.7869 41.9996 55.7869 41.9996L40.0204 43.1834L24.2274 44.5006C24.2274 44.5006 9.36396 51.2906 9.22333 53.5415C9.08271 55.7923 16.556 59.9182 16.556 59.9182L20.0377 56.2782L13.3011 53.8164L22.2588 50.6048C20.4633 57.1243 19.8133 62.6086 19.8133 62.6086L32.5571 62.3945L35.9322 71.5417L39.8854 71.2032L40.638 62.2587L41.9238 62.2371L42.6783 71.2032L46.6315 71.5417L50.1155 62.0995L63.7772 61.87C63.7772 61.87 61.8201 54.6217 58.0869 46.9601C60.8866 47.7982 64.4724 48.8732 65.0433 49.0528C66.0002 49.3536 68.6091 37.1593 68.6091 37.1593L63.8083 35.667Z" fill="#DF4F3E"/>
<path d="M38.1111 40.3944L39.3006 61.1311L18.8178 61.1863L19.2398 65.3514L65.0442 63.9798L64.5915 59.7856L41.7959 60.7094C41.7959 60.7094 41.094 39.6078 40.4611 39.7133C39.8282 39.8188 38.1111 40.3944 38.1111 40.3944Z" fill="white"/>
<path d="M19.24 65.5156C19.1559 65.5156 19.085 65.4522 19.0765 65.3681L18.6545 61.2028C18.6498 61.1566 18.665 61.1108 18.6959 61.0761C18.727 61.0417 18.7711 61.0219 18.8175 61.0219L39.127 60.967L37.9472 40.4034C37.9428 40.3297 37.9887 40.262 38.0589 40.2386C38.1295 40.2148 39.7956 39.6578 40.4343 39.5513C40.48 39.5439 40.557 39.5653 40.5937 39.5955C41.2204 40.1086 41.7872 55.5328 41.9547 60.5384L64.5851 59.6213C64.6679 59.62 64.7458 59.6819 64.755 59.7678L65.2075 63.9619C65.2125 64.0075 65.1981 64.053 65.1679 64.0873C65.1379 64.122 65.0948 64.1422 65.0492 64.1438L19.245 65.5156C19.2432 65.5156 19.2415 65.5156 19.24 65.5156ZM18.9997 61.3497L19.3881 65.1827L64.862 63.8209L64.4451 59.9559L41.8028 60.8736C41.7612 60.8739 41.7167 60.8595 41.6845 60.8297C41.6525 60.7998 41.6337 60.7584 41.6322 60.7148C41.37 52.835 40.8314 40.9727 40.4007 39.8919C39.8378 40.0048 38.6597 40.3864 38.2822 40.5109L39.4647 61.1219C39.4672 61.1667 39.4512 61.2111 39.4203 61.2438C39.3895 61.2764 39.3464 61.2955 39.3012 61.2955L18.9997 61.3497Z" fill="#241726"/>
<path d="M24.0646 15.7635C24.0646 15.7635 35.6552 8.4946 41.001 12.7149C46.3466 16.9352 58.4824 26.9882 38.3432 33.559C18.204 40.1298 19.141 18.999 24.0646 15.7635Z" fill="#E38B72"/>
<path d="M24.5009 17.7871C24.5009 17.7871 18.0159 28.5598 27.7227 32.9207C37.4294 37.2817 29.3405 23.9929 36.5149 23.9226C43.6892 23.8523 43.1675 32.9595 46.2917 27.5098C50.723 19.7803 38.5038 13.8459 40.3325 13.5645C42.1613 13.2831 43.4236 12.794 43.9706 13.8642C45.5884 17.0293 64.5092 19.7725 62.3991 30.3232C60.2889 40.8739 53.8178 48.4704 35.2488 49.0331C16.6795 49.5961 11.6856 37.7793 16.4686 28.9167C21.2516 20.0542 18.74 18.5025 20.2875 18.3618C21.8349 18.2212 24.5009 17.7871 24.5009 17.7871Z" fill="#F4F1E3"/>
<path d="M37.2531 26.201C36.7017 26.201 35.1995 25.0377 34.5518 24.5143C34.4814 24.4576 34.4704 24.354 34.5273 24.2833C34.5845 24.2132 34.6875 24.2016 34.7584 24.259C35.6917 25.013 36.825 25.8 37.1751 25.8722C37.1476 25.354 36.1293 22.9216 35.1004 20.738C35.0618 20.656 35.097 20.5582 35.1789 20.5196C35.2612 20.4811 35.359 20.5157 35.3975 20.5982C36.0933 22.0744 37.6884 25.5621 37.4751 26.061C37.4486 26.1229 37.4009 26.1682 37.3408 26.1883C37.315 26.1968 37.2858 26.201 37.2531 26.201Z" fill="#241726"/>
<path d="M38.0386 31.1263C37.9378 31.1263 37.8199 31.0981 37.6858 31.0212C36.136 30.1334 34.5739 27.0329 34.5083 26.9015C34.4677 26.8204 34.5006 26.7215 34.5817 26.6812C34.6627 26.6404 34.7616 26.6738 34.8021 26.7546C34.8177 26.786 36.3852 29.8978 37.8491 30.7363C38.0116 30.829 38.0963 30.7973 38.146 30.7653C38.7497 30.374 38.6842 27.322 38.5011 25.4903C38.4921 25.4001 38.5578 25.3196 38.6481 25.3106C38.74 25.3006 38.8189 25.3673 38.828 25.4574C38.8785 25.9629 39.2936 30.4126 38.3246 31.0406C38.2542 31.0863 38.1585 31.1263 38.0386 31.1263Z" fill="#241726"/>
<path d="M29.0994 25.6384C27.1603 25.6384 26.1969 21.875 26.1561 21.7118C26.1339 21.624 26.1875 21.5348 26.2754 21.5126C26.3637 21.4911 26.4526 21.544 26.4747 21.6323C26.4844 21.6701 27.4545 25.4403 29.1872 25.3065C29.4797 25.285 29.6869 25.1703 29.8203 24.9556C30.3892 24.0415 29.4783 21.7564 29.4689 21.7336C29.435 21.6492 29.4756 21.5536 29.5598 21.5196C29.6431 21.4864 29.7395 21.5264 29.7734 21.6104C29.814 21.7104 30.7558 24.0736 30.0992 25.1287C29.909 25.4343 29.6103 25.6043 29.2114 25.6342C29.1737 25.6368 29.1364 25.6384 29.0994 25.6384Z" fill="#241726"/>
<path d="M40.5922 22.6999C40.5298 22.6999 40.4617 22.6929 40.387 22.6771C38.6445 22.3054 38.198 19.0876 38.1798 18.9507C38.168 18.8609 38.2311 18.7785 38.3209 18.7667C38.4106 18.7499 38.4933 18.8176 38.5053 18.9077C38.5095 18.9388 38.9387 22.0323 40.4555 22.3559C40.6852 22.4046 40.7827 22.3312 40.8347 22.2712C41.2714 21.7712 40.7358 19.6423 40.2956 18.4177C40.265 18.3324 40.3092 18.2385 40.3947 18.2077C40.4792 18.1776 40.5737 18.2215 40.6047 18.3068C40.7278 18.6493 41.7883 21.6785 41.082 22.4871C40.9917 22.5909 40.8381 22.6999 40.5922 22.6999Z" fill="#241726"/>
<path d="M27.968 29.3194C28.6844 28.8899 28.9169 27.9611 28.4875 27.2448C28.058 26.5285 27.1292 26.2959 26.4129 26.7254C25.6966 27.1548 25.464 28.0836 25.8935 28.7999C26.3229 29.5162 27.2517 29.7488 27.968 29.3194Z" fill="#DF4F3E"/>
<path d="M43.6541 24.0434C44.4893 24.0434 45.1663 23.3664 45.1663 22.5312C45.1663 21.6961 44.4893 21.019 43.6541 21.019C42.819 21.019 42.1419 21.6961 42.1419 22.5312C42.1419 23.3664 42.819 24.0434 43.6541 24.0434Z" fill="#DF4F3E"/>
<path d="M38.0572 11.2904C38.0572 11.2904 34.3892 5.35352 28.2425 2.25868C22.0956 -0.836162 13.0925 9.78477 13.0925 9.78477L21.1814 7.53399C21.1814 7.53399 19.6547 15.0145 20.2876 15.8362C20.9204 16.6579 38.0572 11.2904 38.0572 11.2904Z" fill="#DF4F3E"/>
<path d="M12.3197 12.0373C13.5124 12.0373 14.4792 11.0705 14.4792 9.87779C14.4792 8.68512 13.5124 7.71826 12.3197 7.71826C11.127 7.71826 10.1602 8.68512 10.1602 9.87779C10.1602 11.0705 11.127 12.0373 12.3197 12.0373Z" fill="white"/>
<path d="M12.3199 12.2017C11.0386 12.2017 9.99612 11.1594 9.99612 9.87811C9.99612 8.59686 11.0386 7.5542 12.3199 7.5542C13.6011 7.5542 14.6436 8.59686 14.6436 9.87811C14.6436 11.1594 13.6011 12.2017 12.3199 12.2017ZM12.3199 7.88248C11.2196 7.88248 10.3244 8.77764 10.3244 9.87795C10.3244 10.9779 11.2196 11.8731 12.3199 11.8731C13.42 11.8731 14.3152 10.9779 14.3152 9.87795C14.3152 8.77764 13.42 7.88248 12.3199 7.88248Z" fill="#241726"/>
<path d="M19.2393 15.3944C19.2393 15.3944 39.7311 7.61878 41.4143 9.38034C43.0974 11.1419 43.9704 13.8644 43.9704 13.8644C43.9704 13.8644 20.1258 21.7047 19.6335 20.6685C19.141 19.6322 19.2393 15.3944 19.2393 15.3944Z" fill="white"/>
<path d="M19.97 20.9258C19.5738 20.9258 19.5243 20.8216 19.4849 20.7388C18.9816 19.6794 19.071 15.5652 19.075 15.3903C19.0766 15.3236 19.1185 15.2642 19.181 15.2405C21.2886 14.441 39.8241 7.47893 41.5327 9.26643C43.2224 11.0352 44.0904 13.7011 44.1265 13.8139C44.1541 13.8999 44.1071 13.9919 44.0215 14.0199C43.9618 14.0397 37.9897 16.0016 32.0341 17.8117C23.5707 20.3846 20.8721 20.9258 19.97 20.9258ZM19.7724 20.5778C20.7161 21.0441 34.8922 16.673 43.7608 13.7602C43.5488 13.1633 42.7054 10.9692 41.2957 9.49362C40.12 8.26299 27.6 12.4028 19.4016 15.5085C19.3907 16.1744 19.3552 19.6485 19.7724 20.5778Z" fill="#241726"/>
<path d="M20.8052 26.5867C21.6745 25.7174 21.6745 24.308 20.8052 23.4387C19.936 22.5695 18.5266 22.5695 17.6573 23.4387C16.788 24.308 16.788 25.7174 17.6573 26.5867C18.5266 27.4559 19.936 27.4559 20.8052 26.5867Z" fill="#E38B72"/>
<path d="M48.0176 19.032C49.247 19.032 50.2436 18.0354 50.2436 16.806C50.2436 15.5767 49.247 14.5801 48.0176 14.5801C46.7883 14.5801 45.7917 15.5767 45.7917 16.806C45.7917 18.0354 46.7883 19.032 48.0176 19.032Z" fill="#E38B72"/>
<path d="M19.8888 25.8947C19.8091 25.8947 19.7391 25.8367 19.7266 25.7555C19.5538 24.6394 19.2419 24.3202 19.011 24.2488C18.6503 24.1381 18.2547 24.5538 18.2505 24.5577C18.1889 24.6241 18.0852 24.6278 18.0185 24.5656C17.9522 24.5038 17.9483 24.4005 18.0102 24.3341C18.0319 24.3106 18.5486 23.7635 19.1063 23.9344C19.5735 24.0775 19.8913 24.6733 20.0511 25.7055C20.0649 25.795 20.0036 25.8789 19.9141 25.8928C19.9055 25.8941 19.897 25.8947 19.8888 25.8947Z" fill="#241726"/>
<path d="M47.6914 18.3025C47.6202 18.3025 47.5547 18.2559 47.5338 18.1842C47.23 17.1437 47.2567 16.375 47.6128 15.9003C47.9475 15.4539 48.4441 15.4487 48.4652 15.4487C48.5559 15.4487 48.6294 15.5222 48.6294 15.6129C48.6294 15.7034 48.5564 15.7765 48.4662 15.7772C48.4517 15.7775 48.1058 15.7858 47.872 16.102C47.5889 16.485 47.5809 17.1733 47.8491 18.0925C47.8744 18.1794 47.8245 18.2704 47.7375 18.2958C47.722 18.3003 47.7066 18.3025 47.6914 18.3025Z" fill="#241726"/>
<path d="M18.7188 4.60031C18.7188 4.60031 20.8289 7.39359 23.6424 6.33843C26.456 5.28343 25.4008 2.32921 27.2296 5.14265C29.0583 7.95609 33.6022 6.05187 33.5372 5.99359C33.4722 5.93531 29.9024 1.90703 26.878 0.992651C23.8535 0.0784324 18.7188 4.60031 18.7188 4.60031Z" fill="#F4F1E3"/>
<path d="M18.8172 57.2275C18.8172 57.2275 21.8492 58.7794 20.8367 61.6021C19.8242 64.4246 14.2611 66.1127 15.3955 64.4549C16.0813 63.4525 19.1938 62.503 19.1938 62.503C19.1938 62.503 15.1177 63.8433 14.3433 62.9779C13.9185 62.503 18.2227 61.8127 18.3881 61.8102C18.5536 61.8079 15.9231 62.1386 15.2902 61.1866C14.6572 60.2346 18.3353 61.9755 18.8174 60.1291C19.2994 58.2827 17.9806 58.3882 17.9806 58.3882L18.8172 57.2275Z" fill="#E38B72"/>
<path d="M21.201 54.8603C21.201 54.8603 60.3549 51.9984 60.4252 52.2094C60.4955 52.4203 61.468 54.8809 61.468 54.8809L20.7774 56.8586L21.201 54.8603Z" fill="#241726"/>
<path d="M36.3516 52.5327L43.6885 51.9072V57.2279L37.0975 57.8913L36.3516 52.5327Z" fill="#E1AF01"/>
<path d="M38.1862 53.6974L41.8547 53.3848V56.0451L38.5592 56.3768L38.1862 53.6974Z" fill="#241726"/>
<path d="M21.181 7.69823C21.1091 7.69823 21.0432 7.65073 21.023 7.57792C20.9986 7.49073 21.0497 7.40026 21.1371 7.37589C22.088 7.11089 24.1496 7.22026 24.2369 7.22542C24.3275 7.23026 24.3968 7.30792 24.3918 7.39823C24.3869 7.4887 24.31 7.5612 24.219 7.55308C24.1982 7.55245 22.124 7.44214 21.2254 7.69198C21.2105 7.6962 21.1955 7.69823 21.181 7.69823Z" fill="#241726"/>
<path d="M36.1164 13.5396C36.0936 13.5396 36.0705 13.5348 36.0486 13.5249C35.966 13.4874 35.9296 13.3899 35.9672 13.3074C36.1467 12.9132 36.3786 12.6935 36.6564 12.6538C37.065 12.5974 37.3885 12.9649 37.4021 12.981C37.4611 13.0496 37.4533 13.1526 37.385 13.212C37.3167 13.2713 37.2132 13.2635 37.1535 13.1955C37.0925 13.126 36.8924 12.9521 36.7016 12.9791C36.5032 13.0084 36.3552 13.2479 36.2661 13.4435C36.2385 13.5041 36.1788 13.5396 36.1164 13.5396Z" fill="#241726"/>
<path d="M37.8622 14.5229C37.8394 14.5229 37.8163 14.5181 37.7944 14.5081C37.7118 14.4706 37.6755 14.3731 37.713 14.2906C37.8924 13.8963 38.1243 13.6767 38.4022 13.637C38.8108 13.5793 39.1343 13.9481 39.1479 13.9642C39.2069 14.0328 39.1991 14.1357 39.1308 14.1951C39.0626 14.2545 38.9591 14.2467 38.8993 14.1787C38.8383 14.1092 38.6366 13.9365 38.4474 13.9623C38.2488 13.9915 38.101 14.231 38.0119 14.4267C37.9843 14.4873 37.9247 14.5229 37.8622 14.5229Z" fill="#241726"/>
<path d="M34.068 14.0104C34.0452 14.0104 34.0221 14.0055 34.0002 13.9957C33.9177 13.9582 33.8813 13.8607 33.9188 13.7782C34.0982 13.384 34.3302 13.164 34.608 13.1243C35.0186 13.0666 35.34 13.4354 35.3536 13.4515C35.4127 13.5201 35.4049 13.623 35.3366 13.6824C35.2682 13.7418 35.1647 13.7344 35.105 13.666C35.0441 13.5965 34.8471 13.4177 34.6532 13.4499C34.4547 13.4788 34.3068 13.7183 34.2175 13.9143C34.19 13.9747 34.1303 14.0104 34.068 14.0104Z" fill="#241726"/>
<path d="M35.7972 14.9012C35.7744 14.9012 35.7515 14.8964 35.7294 14.8865C35.6468 14.849 35.6105 14.7515 35.648 14.669C35.8274 14.2748 36.0593 14.0548 36.3372 14.0151C36.7469 13.9564 37.0694 14.3262 37.0829 14.3423C37.1419 14.4109 37.1341 14.5139 37.0658 14.5732C36.9974 14.6326 36.894 14.6253 36.8343 14.5568C36.7733 14.4873 36.5761 14.3079 36.3824 14.3407C36.184 14.3696 36.036 14.6092 35.9469 14.8051C35.9193 14.8656 35.8597 14.9012 35.7972 14.9012Z" fill="#241726"/>
<path d="M33.6797 15.5872C33.6569 15.5872 33.6338 15.5824 33.6119 15.5725C33.5293 15.535 33.4929 15.4376 33.5305 15.3551C33.7099 14.9608 33.9419 14.7408 34.2197 14.7011C34.63 14.6424 34.9518 15.0122 34.9654 15.0283C35.0244 15.0969 35.0166 15.1999 34.9483 15.2593C34.8799 15.3186 34.7764 15.3111 34.7168 15.2429C34.6558 15.1733 34.4571 14.9949 34.2649 15.0268C34.0664 15.0557 33.9185 15.2952 33.8293 15.4911C33.8018 15.5518 33.7421 15.5872 33.6797 15.5872Z" fill="#241726"/>
<path d="M63.5397 35.0879L63.3542 36.819L69.0417 38.6426L69.7526 36.6643L63.5397 35.0879Z" fill="white"/>
<path d="M69.0417 38.8071C69.025 38.8071 69.0081 38.8046 68.9915 38.7994L63.3042 36.9755C63.2301 36.9514 63.1828 36.8789 63.1911 36.8013L63.3764 35.0704C63.3814 35.0232 63.4068 34.9802 63.4457 34.9533C63.4848 34.9261 63.5339 34.9171 63.58 34.9289L69.7929 36.5057C69.8378 36.5169 69.8759 36.5468 69.8975 36.5877C69.9193 36.6285 69.9226 36.6766 69.9072 36.7202L69.1962 38.6985C69.1722 38.765 69.1092 38.8071 69.0417 38.8071ZM63.5318 36.7035L68.9409 38.438L69.537 36.7796L63.6828 35.2936L63.5318 36.7035Z" fill="#241726"/>
<path d="M19.01 54.8989L15.1658 59.6188L16.7059 60.7095L21.0378 55.6055L19.01 54.8989Z" fill="white"/>
<path d="M16.7058 60.8736C16.673 60.8736 16.6397 60.8636 16.6109 60.8434L15.0706 59.7527C15.0336 59.7264 15.009 59.6859 15.0028 59.6408C14.9967 59.5959 15.0095 59.5503 15.0383 59.515L18.8826 54.7952C18.9262 54.7413 18.9987 54.7205 19.064 54.7439L21.0919 55.4505C21.143 55.4681 21.182 55.5102 21.1962 55.562C21.2105 55.6144 21.198 55.6705 21.1631 55.7116L16.8312 60.8155C16.7989 60.8538 16.7526 60.8736 16.7058 60.8736ZM15.404 59.5863L16.6781 60.4884L20.7578 55.6817L19.0648 55.0919L15.404 59.5863Z" fill="#241726"/>
<path d="M34.9696 47.895C34.7363 47.895 34.4908 47.8748 34.2329 47.8304C32.7752 47.5803 31.79 46.9815 31.1736 46.3095C31.1661 46.3187 31.1586 46.3281 31.1508 46.337C30.6466 46.9406 29.4915 47.857 27.4188 47.2068C25.5641 46.6254 24.7168 45.607 24.3963 44.6596C24.0038 45.1353 23.5199 45.5484 22.996 45.7418C22.4021 45.9612 21.511 45.9871 20.6468 44.8628C19.7465 43.6915 19.5821 42.7214 19.6535 42.0301C19.4291 42.0609 19.198 42.0718 18.9658 42.0584C17.9685 41.9996 17.2183 41.4898 16.8536 40.6224C16.2654 39.2235 16.758 37.8739 17.4385 37.0351C16.9718 36.7435 16.4266 36.1787 16.3005 35.107C16.1408 33.75 16.8804 32.5851 17.7269 31.8443C17.3327 31.5582 17.0255 31.1426 16.8499 30.6368C16.6274 29.9964 16.6491 29.4431 16.9143 28.9918C17.3566 28.2387 18.3111 28.0631 18.3516 28.0559C18.4413 28.0385 18.5258 28.0995 18.5416 28.1887C18.5575 28.2782 18.498 28.3632 18.4088 28.3792C18.4005 28.3807 17.5604 28.5379 17.1963 29.1598C16.9832 29.5239 16.971 29.9846 17.16 30.529C17.354 31.0871 17.6822 31.4239 17.9946 31.6268C18.3918 31.3267 18.7943 31.1226 19.124 31.0367C19.7268 30.8807 19.9124 31.1582 19.9647 31.2849C20.0635 31.5239 20.0383 31.7548 19.8938 31.9357C19.673 32.2115 19.1936 32.3331 18.6707 32.2423C18.4415 32.2032 18.2243 32.1298 18.0235 32.0268C17.2179 32.7045 16.478 33.8068 16.6266 35.0685C16.7419 36.0484 17.2482 36.5423 17.6607 36.7854C17.8722 36.5695 18.0921 36.4031 18.2963 36.2985C18.7638 36.0593 19.1652 36.1182 19.371 36.4551C19.5543 36.7556 19.453 36.9721 19.3765 37.0742C19.1607 37.3624 18.6155 37.4578 18.0507 37.3057C17.9761 37.2859 17.866 37.2509 17.7365 37.1935C17.1058 37.9492 16.6169 39.2137 17.1561 40.4957C17.558 41.4512 18.3724 41.6946 18.9849 41.7309C19.2272 41.7446 19.4732 41.7276 19.711 41.6876C19.7499 41.5234 19.8005 41.382 19.8513 41.2649C20.1116 40.6674 20.6115 40.2204 21.0668 40.1773C21.2915 40.1562 21.4779 40.237 21.5922 40.4049C21.7182 40.5893 21.7196 40.8107 21.5966 41.0278C21.3815 41.4071 20.7508 41.794 19.9919 41.9684C19.9019 42.5945 20.0252 43.5159 20.9068 44.6628C21.4044 45.3103 21.9518 45.5996 22.5344 45.5214C23.2161 45.4306 23.8382 44.8684 24.2896 44.2612C24.1922 43.766 24.2285 43.3125 24.3227 42.9806C24.4782 42.4331 24.7996 42.1217 25.1221 42.2031C25.1935 42.2214 25.361 42.2939 25.3757 42.5729C25.3957 42.9596 25.1108 43.6728 24.643 44.3359C24.8752 45.2539 25.64 46.3054 27.5165 46.8934C29.4077 47.4867 30.4468 46.6679 30.8983 46.1268C30.9185 46.1024 30.9385 46.0781 30.9579 46.0531C30.4949 45.4485 30.3082 44.8139 30.3272 44.3379C30.3508 43.7429 30.6705 43.3459 31.1618 43.301C31.4318 43.277 31.6532 43.4043 31.7871 43.66C32.0536 44.1682 31.934 45.191 31.3693 46.0439C31.9366 46.6828 32.8732 47.2639 34.288 47.5067C36.4052 47.872 37.6113 46.461 38.0316 45.8385C38.1532 45.6579 38.2579 45.4748 38.346 45.2943C37.8963 44.6334 37.686 43.9649 37.8313 43.5615C37.9091 43.3457 38.0832 43.2096 38.3215 43.1782C38.5666 43.1465 38.768 43.2385 38.8911 43.4381C39.125 43.8165 39.0461 44.5264 38.7241 45.261C38.8263 45.3981 38.9408 45.5362 39.0682 45.6732C39.5972 46.2415 41.0388 47.5056 43.0018 46.9542C44.7657 46.459 45.6225 44.9445 45.855 43.6489C45.1475 43.1489 44.684 42.5632 44.5986 42.109C44.5255 41.719 44.7227 41.4268 45.126 41.3271C45.6064 41.2092 45.9918 41.5173 46.1593 42.1528C46.2543 42.5123 46.2749 42.9796 46.206 43.4879C47.09 44.069 48.3532 44.521 49.7636 44.3375C50.9847 44.1793 51.4988 43.0773 51.7149 42.1809C51.8571 41.5904 51.8994 40.9582 51.8683 40.3695C51.0239 39.7762 50.4066 39.0042 50.2918 38.4832C50.2079 38.1021 50.3832 37.9159 50.495 37.8389C50.765 37.6524 51.0535 37.6467 51.3074 37.8209C51.7854 38.149 52.1054 39.1054 52.1858 40.1898C52.6747 40.5103 53.2327 40.7635 53.7935 40.8601C54.8852 41.0471 55.7563 40.6324 56.3835 39.626C57.4457 37.922 56.9436 36.6064 56.4949 35.9223C56.1108 35.9335 55.7555 35.8818 55.4497 35.7803C54.8771 35.5901 54.521 35.234 54.4971 34.8278C54.486 34.641 54.5702 34.4984 54.7282 34.4359C55.135 34.2759 55.9421 34.7137 56.5268 35.4148C56.5686 35.4648 56.6141 35.5223 56.6615 35.587C57.5757 35.5145 58.6363 35.059 59.4883 34.0474C60.5715 32.7614 59.9599 30.9842 59.07 29.8876C58.7932 30.0454 58.545 30.0868 58.3885 30.0939C57.8808 30.1143 57.3958 29.8556 57.235 29.4714C57.1286 29.2164 57.1868 28.9598 57.3949 28.7678C57.718 28.4692 58.3075 28.6565 58.9335 29.2543C58.998 29.3162 59.0629 29.3823 59.1275 29.4524C59.4861 29.1526 59.7879 28.6468 59.9985 27.9729C60.5521 26.2018 59.3554 24.7939 58.209 24.2396C58.098 24.6085 57.8804 24.8499 57.7344 24.9779C57.2686 25.3871 56.5874 25.502 56.2157 25.2335C56.0893 25.1421 55.8211 24.8685 56.0624 24.2984C56.3224 23.6839 57.0558 23.4854 57.9466 23.7792C57.9527 23.4279 57.8424 23.0306 57.6144 22.6095C56.8602 21.2149 55.6046 20.7926 54.6516 20.8096C54.6372 20.9279 54.6108 21.0467 54.5722 21.1649C54.389 21.7262 53.9699 22.1403 53.576 22.1493C53.3302 22.1484 53.1335 22.0021 53.0307 21.7301C52.8775 21.3251 53.1029 20.927 53.6186 20.6914C53.8266 20.596 54.069 20.53 54.3322 20.4979C54.3099 20.125 54.1415 19.6551 53.5788 19.2237C51.799 17.859 50.0933 19.4662 50.0216 19.5354C49.9565 19.5979 49.8525 19.5964 49.7894 19.5309C49.7266 19.4657 49.7283 19.3618 49.7935 19.299C49.813 19.2798 51.7729 17.4251 53.7786 18.9632C54.3182 19.3767 54.6238 19.9132 54.661 20.476C55.7688 20.4581 57.1255 21.0148 57.9033 22.4529C58.2222 23.0428 58.3061 23.5245 58.2724 23.9068C59.5563 24.4906 60.9374 26.0692 60.3118 28.071C60.0479 28.9159 59.6875 29.411 59.3402 29.6996C60.2629 30.8459 60.9971 32.7654 59.7394 34.259C58.8802 35.2792 57.8154 35.7728 56.8641 35.8937C57.3283 36.6798 57.7474 38.0585 56.6621 39.7998C55.7841 41.2084 54.5872 41.3293 53.7377 41.1837C53.2005 41.0914 52.6761 40.8723 52.2043 40.5884C52.2149 41.149 52.1616 41.7273 52.0338 42.2578C51.6941 43.6667 50.9027 44.521 49.8052 44.6632C48.4083 44.8442 47.1011 44.4301 46.1444 43.8403C45.8555 45.2101 44.9291 46.7543 43.0902 47.2704C40.9536 47.8706 39.3974 46.5096 38.8274 45.8968C38.7341 45.7968 38.646 45.6942 38.5636 45.5906C38.4858 45.7362 38.399 45.8809 38.3033 46.0223C37.8994 46.622 36.8215 47.8946 34.9696 47.895ZM31.2283 43.6262C31.2157 43.6262 31.2033 43.6271 31.1919 43.6281C30.873 43.657 30.6725 43.9273 30.6557 44.351C30.6399 44.7465 30.7883 45.2654 31.1529 45.7731C31.5991 45.0476 31.7052 44.2101 31.4965 43.8121C31.4143 43.6553 31.3102 43.6262 31.2283 43.6262ZM38.416 43.5004C38.3996 43.5004 38.3825 43.5014 38.3643 43.504C38.2475 43.519 38.1765 43.5729 38.1404 43.6728C38.0521 43.9181 38.1735 44.397 38.5018 44.9332C38.7204 44.3504 38.7538 43.8403 38.6119 43.6106C38.5658 43.5354 38.5041 43.5004 38.416 43.5004ZM25.0194 42.5139C24.9271 42.5139 24.7465 42.6924 24.6393 43.0703C24.5788 43.2832 24.546 43.5526 24.5663 43.8518C24.703 43.6276 24.8129 43.4106 24.8905 43.222C25.0891 42.7396 25.053 42.5417 25.0324 42.5154C25.0283 42.5145 25.0238 42.5139 25.0194 42.5139ZM45.316 41.6315C45.281 41.6315 45.2441 41.636 45.2052 41.6456C44.9679 41.7043 44.8805 41.8284 44.9218 42.0481C44.9821 42.3689 45.339 42.8396 45.906 43.2742C45.9416 42.8806 45.9174 42.5214 45.8419 42.236C45.7799 42.0001 45.6318 41.6315 45.316 41.6315ZM21.1361 40.5023C21.1241 40.5023 21.1115 40.5029 21.098 40.5042C20.8096 40.531 20.3922 40.8464 20.1529 41.3957C20.1257 41.4582 20.0988 41.5285 20.0743 41.6065C20.6636 41.4432 21.1507 41.1489 21.3113 40.8656C21.3919 40.7232 21.3557 40.6398 21.3215 40.5895C21.306 40.5671 21.2618 40.5023 21.1361 40.5023ZM50.9202 38.0224C50.8441 38.0224 50.7655 38.0514 50.6818 38.109C50.6527 38.1289 50.564 38.1901 50.6129 38.4121C50.705 38.831 51.1786 39.4307 51.8319 39.9368C51.7272 39.0478 51.4554 38.3204 51.1219 38.0914C51.0549 38.0456 50.9885 38.0224 50.9202 38.0224ZM17.9765 36.9368C18.04 36.9606 18.0946 36.9773 18.1363 36.9885C18.6021 37.115 18.9993 37.0306 19.1138 36.8776C19.1316 36.8539 19.1857 36.7817 19.0908 36.6265C18.9429 36.384 18.6233 36.5001 18.446 36.5909C18.2961 36.6674 18.1354 36.7851 17.9765 36.9368ZM54.9218 34.7296C54.8925 34.7296 54.8682 34.7335 54.8496 34.7409C54.8366 34.746 54.8219 34.7518 54.8254 34.8082C54.8408 35.0715 55.1199 35.3243 55.5536 35.4682C55.7619 35.5375 55.9966 35.5804 56.2483 35.5931C55.7305 34.9865 55.1616 34.7296 54.9218 34.7296ZM18.32 31.7982C18.4946 31.871 18.6419 31.9045 18.7266 31.9189C19.1197 31.9865 19.4947 31.9092 19.6374 31.7306C19.7066 31.644 19.7146 31.5395 19.6615 31.4109C19.6011 31.2649 19.2985 31.331 19.2066 31.3548C18.9496 31.4217 18.6374 31.5746 18.32 31.7982ZM57.7775 28.955C57.7118 28.955 57.6575 28.9723 57.6183 29.0085C57.513 29.1057 57.4861 29.2185 57.5386 29.3443C57.6302 29.5634 57.9613 29.7904 58.3738 29.7654C58.5393 29.7578 58.6991 29.7142 58.8513 29.6365C58.8036 29.5862 58.7554 29.5378 58.7071 29.4915C58.3532 29.1532 57.9997 28.955 57.7775 28.955ZM57.1794 23.976C56.8238 23.976 56.505 24.096 56.3654 24.426C56.29 24.6043 56.2363 24.8426 56.4085 24.9671C56.6269 25.1249 57.136 25.0665 57.5182 24.731C57.7121 24.5607 57.8405 24.351 57.903 24.1107C57.6738 24.0299 57.4182 23.976 57.1794 23.976ZM54.3155 20.8356C54.0991 20.8657 53.9082 20.9199 53.7558 20.9895C53.5885 21.0662 53.2125 21.2801 53.3385 21.6135C53.4179 21.8235 53.5332 21.8249 53.569 21.8204C53.7841 21.8156 54.1099 21.5243 54.2607 21.0626C54.28 21.0029 54.3008 20.926 54.3155 20.8356Z" fill="#241726"/>
<path d="M34.6857 70.8096L40.2032 70.3818L40.0207 71.9589L35.3813 72.3142L34.6857 70.8096Z" fill="white"/>
<path d="M40.3216 70.2682C40.2876 70.2329 40.2388 70.2137 40.1905 70.2185L34.6732 70.6463C34.6196 70.6502 34.5713 70.6804 34.5443 70.7268C34.5171 70.7734 34.5143 70.8301 34.5368 70.8788L35.2324 72.3834C35.2593 72.4418 35.3177 72.4787 35.3815 72.4787C35.3857 72.4787 35.3897 72.4787 35.394 72.4784L36.4266 72.3991C36.653 74.1218 30.4065 74.4079 34.3662 75.2132C37.9651 75.9452 38.0726 73.2798 38.0376 72.5587L38.1994 74.6154L39.5007 74.2285L39.1493 72.1904L40.0333 72.1226C40.1118 72.1168 40.1749 72.0559 40.184 71.9779L40.3665 70.4009C40.3719 70.3523 40.3555 70.3034 40.3216 70.2682ZM39.8732 71.8057L35.4826 72.1418L34.934 70.9554L40.0172 70.5612L39.8732 71.8057Z" fill="#241726"/>
<path d="M42.1966 69.9238L47.7604 70.1488L47.3432 71.7771L42.1966 71.959V69.9238Z" fill="white"/>
<path d="M46.1573 71.9833L47.349 71.9412C47.4218 71.9387 47.4841 71.8882 47.5022 71.8177L47.9196 70.1894C47.9319 70.1413 47.9218 70.0904 47.8924 70.0505C47.8627 70.0107 47.8168 69.9866 47.7672 69.9844L42.2033 69.7593C42.1627 69.7605 42.1154 69.774 42.083 69.8051C42.0508 69.8358 42.0326 69.8788 42.0326 69.9233V71.9587C42.0326 72.0032 42.0507 72.0458 42.0827 72.0766C42.1133 72.1065 42.1543 72.1229 42.1968 72.1229C42.1987 72.1229 42.2007 72.1229 42.2026 72.1229L43.4001 72.0805L43.064 74.228L44.3652 74.6149L44.5271 72.5582C44.4922 73.2793 44.5996 75.9447 48.1985 75.2127C52.2224 74.3946 45.7863 74.0044 46.1573 71.9833ZM42.3607 70.0944L47.551 70.3046L47.2146 71.6172L42.3607 71.7888V70.0944Z" fill="#241726"/>
</svg>
